<?xml version="1.0" encoding="utf-8"?>
<!-- Generator: Adobe Illustrator 16.0.0, SVG Export Plug-In . SVG Version: 6.00 Build 0)  -->
<!DOCTYPE svg PUBLIC "-//W3C//DTD SVG 1.1//EN" "http://www.w3.org/Graphics/SVG/1.1/DTD/svg11.dtd">
<svg version="1.1" id="Capa_1" xmlns="http://www.w3.org/2000/svg" xmlns:xlink="http://www.w3.org/1999/xlink" x="0px" y="0px"
	 width="605px" height="345px" viewBox="0 0 605 345" enable-background="new 0 0 605 345" xml:space="preserve">
<g>
	<path fill-rule="evenodd" clip-rule="evenodd" fill="#FFFFFF" d="M267.219,24.999c3.353,1.18,6.745,2.238,9.87,4.006
		c8.325,4.709,15.512,10.806,21.953,17.824c0.757,0.824,1.389,1.781,1.689,2.888c0.104,0.383,0.162,0.858-0.284,1.101
		c-0.404,0.221-0.749-0.096-0.903-0.372c-2.21-3.951-6.326-5.71-9.642-8.375c-3.829-3.076-7.713-6.088-12.039-8.47
		c-5.009-2.758-7.253-2.493-11.303,1.522c-1.05,1.041-1.955,2.229-2.917,3.356c-0.598,0.7-1.167,1.43-1.948,1.943
		c-0.71,0.465-1.44,0.59-2.096-0.061c-0.721-0.715-0.207-1.373,0.276-1.874c2.351-2.434,2.631-5.099,1.372-8.2
		c-1.154-2.84-0.491-4.092,2.28-5.289C264.758,24.999,265.988,24.999,267.219,24.999z"/>
	<path fill-rule="evenodd" clip-rule="evenodd" fill="#FFFFFF" d="M382.901,293.229c0-3.229-0.012-6.458,0.007-9.688
		c0.007-1.136-0.128-2.248-0.312-3.361c-0.138-0.838-0.828-1.722,0.334-2.455c1.704-1.073,3.14-1.336,4.256-0.374
		c0.682,0.587,1.066,0.378,1.689,0.025c3.444-1.945,7.251-2.689,10.705-0.781c2.134,1.177,3.545,0.986,5.407,0.035
		c2.023-1.033,4.264-1.066,6.466-0.825c4.189,0.463,6.399,3.238,6.497,8.249c0.102,5.226,0.072,10.454,0.099,15.682
		c0.005,0.924-0.019,1.846,0.005,2.769c0.052,2.21-0.152,2.586-2.357,2.682c-4.173,0.178-4.181,0.885-4.183-3.757
		c-0.002-4.972-0.01-9.944,0.007-14.917c0.003-1.187-0.131-2.355-0.381-3.506c-0.292-1.344-1.165-2.097-2.535-2.284
		c-2.598-0.357-4.816,1.526-4.816,4.102c0,6.049,0.001,12.098-0.004,18.146c-0.001,1.978-0.342,2.305-2.337,2.312
		c-0.563,0.004-1.129,0.002-1.692,0.002c-2.757,0-2.673,0.002-2.591-2.766c0.181-6.042,0.29-12.089-0.074-18.131
		c-0.129-2.123-0.873-3.262-2.25-3.64c-1.55-0.424-4.4,0.599-5.274,1.873c-0.325,0.474-0.192,0.991-0.192,1.489
		c-0.014,5.945,0.001,11.892-0.018,17.838c-0.006,2.513-0.784,3.268-3.313,3.334c-3.15,0.082-3.146,0.082-3.141-2.979
		C382.906,299.278,382.901,296.255,382.901,293.229z"/>
	<path fill-rule="evenodd" clip-rule="evenodd" fill="#FFFFFF" d="M270.879,288.712c0,3.637-0.007,7.272,0.008,10.91
		c0.002,0.557,0.093,1.118,0.181,1.672c0.143,0.891,0.804,1.798-0.548,2.45c-1.36,0.657-2.656,1.569-4.062,0.311
		c-0.59-0.53-0.938-0.46-1.54-0.089c-2.974,1.822-6.185,2.307-9.592,1.569c-3.74-0.809-5.661-3.402-5.93-8.05
		c-0.255-4.41,0.278-8.801,0.347-13.202c0.032-2.057,0.074-4.094-0.504-6.09c-0.085-0.295-0.279-0.672-0.007-0.854
		c1.263-0.844,2.443-1.964,4.109-1.83c1.591,0.128,2.184,1.29,2.537,2.677c0.485,1.903,0.639,3.835,0.544,5.782
		c-0.149,3.068-0.352,6.134-0.528,9.199c-0.074,1.278-0.028,2.544,0.094,3.825c0.394,4.145,3.779,4.213,6.339,3.284
		c1.386-0.504,2.125-1.407,2.089-3.123c-0.122-5.837-0.049-11.679-0.036-17.52c0.006-2.523,0.625-3.159,3.129-3.3
		c3.38-0.191,3.374-0.191,3.366,3.159c-0.007,3.072-0.001,6.146-0.001,9.219C270.876,288.712,270.878,288.712,270.879,288.712z"/>
	<path fill-rule="evenodd" clip-rule="evenodd" fill="#FFFFFF" d="M503.74,293.303c-0.129-4.298,0.388-8.607-0.173-12.902
		c-0.108-0.833-0.992-1.819,0.413-2.527c1.45-0.73,2.854-1.645,4.347-0.268c0.646,0.595,1.015,0.131,1.457-0.128
		c2.673-1.553,5.571-1.992,8.595-1.69c4.434,0.444,6.746,3.145,6.917,8.232c0.121,3.585,0.034,7.178,0.061,10.766
		c0.021,2.922,0.017,5.845,0.143,8.763c0.039,0.904-0.381,1.204-1.057,1.405c-1.448,0.433-2.946,0.304-4.429,0.334
		c-0.517,0.01-0.689-0.271-0.837-0.71c-0.232-0.694-0.293-1.394-0.292-2.116c0.011-4.871,0.002-9.741,0.007-14.613
		c0-1.282-0.06-2.559-0.281-3.828c-0.413-2.387-1.938-3.521-4.354-3.222c-1.036,0.129-1.955,0.519-2.819,1.117
		c-0.821,0.568-1.199,1.209-1.188,2.273c0.061,5.794,0.038,11.588,0.023,17.382c-0.007,2.987-0.734,3.693-3.736,3.717
		c-2.796,0.021-2.796,0.021-2.796-2.757C503.74,299.453,503.74,296.379,503.74,293.303z"/>
	<path fill-rule="evenodd" clip-rule="evenodd" fill="#FFFFFF" d="M90.493,295.776c1.434-5.864,2.785-11.631,4.445-17.319
		c0.597-2.046,0.709-2.188,2.812-2.167c3.938,0.042,4.094,0.247,2.948,3.99c-2.319,7.571-4.645,15.141-6.976,22.707
		c-0.488,1.587-2.084,2.578-4.044,2.56c-1.663-0.016-2.685-0.827-3.205-2.495c-2.466-7.904-4.942-15.804-7.41-23.708
		c-0.579-1.856-0.153-2.661,1.772-2.979c4.171-0.691,4.066-0.699,5.263,3.163c1.559,5.034,2.765,10.155,3.885,15.299
		C90.045,295.121,90.047,295.433,90.493,295.776z"/>
	<path fill-rule="evenodd" clip-rule="evenodd" fill="#FFFFFF" d="M236.826,275.638c2.305,0.147,4.582,0.17,6.497,1.61
		c1.33,0.999,1.336,1.583,0.528,3.465c-0.548,1.277-1.396,0.861-2.276,0.639c-1.187-0.302-2.364-0.65-3.564-0.882
		c-1.697-0.329-3.42,0.438-3.951,1.668c-0.548,1.268-0.035,2.702,1.471,3.835c1.922,1.446,3.912,2.803,5.823,4.262
		c2.883,2.198,4.5,4.947,3.776,8.756c-0.538,2.832-2.228,4.74-4.748,5.794c-3.939,1.645-7.979,1.626-11.934-0.061
		c-2.142-0.914-2.542-2.772-1.077-4.58c0.719-0.887,1.583-0.449,2.371-0.173c1.595,0.559,3.168,1.155,4.903,1.083
		c1.565-0.063,2.976-0.379,3.582-2.063c0.573-1.592,0.019-3.297-1.587-4.435c-2.174-1.539-4.278-3.164-6.334-4.853
		c-1.417-1.164-2.516-2.564-3.028-4.339c-1.388-4.808,1.688-8.923,7.154-9.589C235.242,275.677,236.064,275.68,236.826,275.638z"/>
	<path fill-rule="evenodd" clip-rule="evenodd" fill="#FFFFFF" d="M583.985,275.698c1.27,0.045,3.501,0.151,5.5,1.44
		c1.316,0.851,1.288,1.854,0.787,3.171c-0.509,1.341-1.302,1.446-2.495,1.061c-1.162-0.378-2.36-0.668-3.561-0.895
		c-1.719-0.325-3.348,0.421-3.924,1.699c-0.54,1.199-0.1,2.565,1.383,3.715c1.821,1.406,3.755,2.668,5.58,4.068
		c2.378,1.824,4.305,3.919,4.263,7.226c-0.047,3.758-1.805,6.479-5.326,7.796c-3.694,1.381-7.426,1.281-11.112-0.047
		c-1.878-0.677-2.528-1.655-2.193-2.958c0.626-2.418,1.228-2.753,3.563-1.866c1.299,0.493,2.598,0.921,4.007,0.942
		c2.356,0.039,3.525-0.589,4.073-2.224c0.533-1.593-0.005-3.109-1.763-4.35c-2.219-1.57-4.354-3.238-6.433-4.981
		c-3.528-2.954-4.199-8.056-1.356-11.036C577.133,276.2,579.979,275.613,583.985,275.698z"/>
	<path fill-rule="evenodd" clip-rule="evenodd" fill="#FFFFFF" d="M26.255,275.666c2.25,0.1,4.514,0.163,6.455,1.557
		c1.297,0.935,1.323,3.297,0.042,4.236c-0.419,0.307-0.894,0.124-1.328,0.021c-1.341-0.316-2.663-0.731-4.015-0.994
		c-1.766-0.344-3.342,0.363-3.949,1.651c-0.593,1.258-0.112,2.628,1.45,3.812c1.958,1.484,3.999,2.858,5.937,4.365
		c3.453,2.687,4.53,5.768,3.476,9.558c-0.539,1.934-1.727,3.418-3.438,4.338c-4.339,2.331-8.824,2.306-13.295,0.384
		c-1.087-0.468-2.017-1.195-1.543-2.738c0.709-2.306,1.227-2.628,3.518-1.747c1.64,0.631,3.289,1.085,5.075,0.904
		c1.371-0.14,2.465-0.603,2.967-2.013c0.52-1.463,0.268-2.821-0.88-3.783c-2.348-1.971-4.85-3.758-7.211-5.714
		c-1.741-1.44-2.929-3.26-3.095-5.612c-0.252-3.562,1.49-6.273,4.856-7.486C22.881,275.826,24.545,275.584,26.255,275.666z"/>
	<path fill-rule="evenodd" clip-rule="evenodd" fill="#FFFFFF" d="M532.464,289.909c0-2.766-0.042-5.176,0.021-7.582
		c0.021-0.85-0.258-1.212-1.071-1.247c-0.253-0.012-0.528-0.027-0.753-0.13c-0.636-0.291-1.63-0.07-1.709-1.187
		c-0.072-1.03,0.257-1.807,1.268-2.2c0.047-0.019,0.087-0.072,0.133-0.074c2.789-0.149,2.837-2.118,2.946-4.213
		c0.157-3.028,1.967-4.555,5.053-4.595c0.748-0.01,0.833,0.306,0.818,0.907c-0.045,1.896-0.021,3.792-0.094,5.686
		c-0.032,0.856,0.234,1.172,1.118,1.145c1.843-0.057,3.689,0.011,5.534-0.029c0.785-0.019,1.16,0.16,0.959,1.032
		c-0.149,0.645-0.15,1.323-0.304,1.966c-0.236,1.003-0.863,1.58-1.95,1.61c-1.43,0.041-2.862,0.181-4.291,0.162
		c-0.804-0.012-1.115,0.282-1.132,1.029c-0.105,5.271-0.354,10.552,0.255,15.801c0.355,3.059,1.48,3.638,4.387,2.677
		c0.339-0.112,0.659-0.278,0.994-0.402c1.328-0.485,1.659-0.272,1.706,1.09c0.092,2.678-0.329,3.297-2.899,4.064
		c-0.778,0.233-1.59,0.404-2.398,0.477c-4.929,0.438-7.714-1.901-8.328-6.828C532.333,295.897,532.541,292.723,532.464,289.909z"/>
	<path fill-rule="evenodd" clip-rule="evenodd" fill="#FFFFFF" d="M291.316,273.701c0.053-0.136,0.145-0.271,0.155-0.409
		c0.201-2.974,0.547-3.42,3.421-4.377c2.426-0.413,2.432-0.413,2.38,2.078c-0.032,1.483-0.064,2.968-0.138,4.45
		c-0.036,0.732,0.234,0.989,0.974,0.973c1.894-0.04,3.79,0.021,5.683-0.028c0.8-0.021,1.036,0.188,1.004,1.033
		c-0.105,2.825-0.637,3.429-3.483,3.637c-0.612,0.046-1.224,0.114-1.836,0.123c-2.387,0.031-2.428,0.024-2.401,2.367
		c0.054,4.706-0.298,9.418,0.268,14.112c0.061,0.505,0.177,1.004,0.309,1.496c0.462,1.71,1.163,2.154,2.913,1.838
		c0.399-0.072,0.782-0.24,1.182-0.326c0.868-0.184,1.797-1.279,2.603-0.197c0.779,1.046-0.057,3.716-1.236,4.313
		c-2.362,1.195-4.88,1.541-7.452,0.925c-2.448-0.585-3.695-2.435-4.399-4.695c-0.6-1.923-0.666-3.922-0.663-5.925
		c0.007-4.045-0.081-8.093,0.044-12.135c0.045-1.485-0.499-1.857-1.824-2.028c-1.842-0.24-2.423-1.452-1.435-2.684
		c0.461-0.573,1.137-0.933,1.85-1.015c1.715-0.199,2.313-1.127,2.035-2.762C291.226,274.221,291.296,273.956,291.316,273.701z"/>
	<path fill-rule="evenodd" clip-rule="evenodd" fill="#FFFFFF" d="M115.542,291.415c-0.09-4.251,0.849-8.021,3.268-11.424
		c3.569-5.019,11.809-5.304,15.892-2.809c1.357,0.832,1.406,1.521,0.655,3.58c-0.519,1.422-1.551,0.858-2.432,0.746
		c-0.646-0.082-1.258-0.405-1.893-0.592c-3.55-1.038-6.518,0.307-7.784,3.785c-1.405,3.856-1.455,7.852-0.197,11.752
		c1.218,3.771,4.03,5.242,7.944,4.391c1.043-0.229,2.075-0.563,3.063-0.97c0.656-0.27,0.892-0.115,1.102,0.503
		c0.613,1.805,0.019,3.488-1.701,4.444c-2.655,1.476-5.548,1.372-8.388,0.931c-5.48-0.849-8.386-4.02-9.215-9.746
		C115.628,294.432,115.48,292.855,115.542,291.415z"/>
	<path fill-rule="evenodd" clip-rule="evenodd" fill="#FFFFFF" d="M198.196,292.362c-0.003,5.226,0.163,10.463-0.528,15.659
		c-0.502,3.782-1.85,7.062-5.886,8.409c-1.911,0.637-3.84,0.558-5.756,0.06c-1.271-0.33-2.067-1.074-1.955-2.528
		c0.088-1.129,0.298-1.688,1.779-1.808c3.979-0.322,5.092-1.506,5.515-4.882c0.224-1.789,0.25-3.58,0.252-5.37
		c0.01-7.586-0.028-15.175-0.046-22.763c-0.004-1.768,0.598-2.562,2.383-2.7c4.331-0.334,4.07-0.702,4.211,3.617
		C198.302,284.155,198.196,288.261,198.196,292.362z"/>
	<path fill-rule="evenodd" clip-rule="evenodd" fill="#FFFFFF" d="M468.127,293.244c0,2.972,0.008,5.943-0.004,8.915
		c-0.01,2.272-0.654,2.957-2.857,3.089c-3.603,0.217-3.605,0.217-3.601-3.407c0.011-6.558,0.034-13.114,0.025-19.671
		c0-0.654-0.054-1.365-0.307-1.954c-0.689-1.603,0.085-2.313,1.447-2.883c0.997-0.415,2.205-0.803,2.928-0.166
		c1.083,0.951,1.744,0.354,2.64-0.06c2.061-0.955,4.164-1.716,6.51-1.056c1.674,0.474,2.069,1.052,1.828,2.924
		c-0.282,2.189-0.728,2.676-2.534,2.61c-1.469-0.054-2.933-0.398-4.377,0.242c-1.115,0.496-1.799,1.074-1.737,2.502
		C468.219,287.296,468.127,290.272,468.127,293.244z"/>
	<path fill-rule="evenodd" clip-rule="evenodd" fill="#FFFFFF" d="M63.032,293c0-3.275-0.009-6.551,0.004-9.827
		c0.006-1.236-0.051-2.476-0.496-3.626c-0.341-0.88-0.05-1.323,0.694-1.712c1.521-0.795,3.013-1.635,4.598-0.117
		c0.487,0.466,0.832-0.119,1.193-0.289c2.235-1.05,4.454-2.071,7.042-1.398c1.742,0.453,2.206,1.008,1.994,2.626
		c-0.352,2.682-0.637,3.022-2.696,2.929c-1.367-0.062-2.716-0.373-4.076,0.183c-1.24,0.503-1.966,1.118-1.94,2.67
		c0.097,5.886,0.042,11.773,0.038,17.661c-0.001,2.462-0.569,3.039-3.064,3.156c-3.4,0.161-3.387,0.161-3.367-3.192
		c0.018-3.021,0.003-6.041,0.003-9.062C62.984,293,63.008,293,63.032,293z"/>
	<path fill-rule="evenodd" clip-rule="evenodd" fill="#FFFFFF" d="M265.118,81.403c-0.001,0.205,0.007,0.409-0.002,0.614
		c-0.134,2.676-1.382,3.421-3.857,2.309c-5.45-2.449-8.604-8.077-7.765-13.945c0.347-2.426-0.019-4.794-0.361-7.177
		c-0.352-2.456,0.119-2.957,2.578-2.856c3.179,0.129,4.914,1.49,5.344,4.593c0.615,4.438,1.783,8.704,3.395,12.867
		C264.894,78.957,265.181,80.152,265.118,81.403z"/>
	<path fill-rule="evenodd" clip-rule="evenodd" fill="#FFFFFF" d="M276.791,291.287c0.001-4.148,0.044-8.297-0.027-12.444
		c-0.02-1.196,0.479-1.812,1.499-2.177c1.285-0.461,2.626-0.337,3.952-0.371c0.578-0.015,0.847,0.339,0.928,0.827
		c0.127,0.753,0.268,1.518,0.27,2.277c0.02,7.225,0.012,14.449,0.009,21.673c-0.001,0.357-0.007,0.718-0.055,1.072
		c-0.338,2.47-0.955,3.019-3.461,3.105c-3.114,0.11-3.114,0.11-3.114-3.051C276.792,298.562,276.791,294.925,276.791,291.287z"/>
	<path fill-rule="evenodd" clip-rule="evenodd" fill="#FFFFFF" d="M430.286,290.134c0,3.486,0.003,6.971-0.004,10.458
		c-0.002,0.613,0.004,1.235-0.085,1.841c-0.319,2.149-0.939,2.691-3.109,2.804c-3.472,0.182-3.481,0.182-3.465-3.299
		c0.033-6.66,0.086-13.321,0.114-19.984c0.003-1.125-0.072-2.25-0.123-3.377c-0.043-0.966,0.488-1.562,1.318-1.856
		c1.375-0.486,2.819-0.448,4.257-0.407c0.52,0.015,0.717,0.354,0.793,0.779c0.114,0.652,0.26,1.312,0.265,1.969
		c0.025,3.691,0.012,7.382,0.012,11.073C430.268,290.134,430.277,290.134,430.286,290.134z"/>
	<path fill-rule="evenodd" clip-rule="evenodd" fill="#FFFFFF" d="M139.216,291.284c0-4.199,0.039-8.398-0.029-12.598
		c-0.017-0.998,0.378-1.578,1.183-1.917c1.406-0.59,2.91-0.482,4.392-0.452c0.617,0.012,0.74,0.54,0.811,0.959
		c0.129,0.751,0.181,1.522,0.181,2.287c0.013,7.117,0.009,14.236,0.003,21.354c0,0.512-0.011,1.025-0.07,1.533
		c-0.243,2.048-0.864,2.626-2.931,2.777c-3.528,0.255-3.528,0.255-3.528-3.191c0-3.584,0-7.169,0-10.753
		C139.225,291.284,139.22,291.284,139.216,291.284z"/>
	<path fill-rule="evenodd" clip-rule="evenodd" fill="#FFFFFF" d="M104.702,291.441c0-4.197,0.037-8.393-0.022-12.589
		c-0.018-1.246,0.498-1.911,1.618-2.242c1.249-0.369,2.531-0.295,3.808-0.316c0.669-0.011,0.901,0.444,0.968,0.971
		c0.116,0.909,0.217,1.829,0.219,2.745c0.018,6.911,0.012,13.82,0.005,20.73c-0.001,0.562-0.021,1.127-0.089,1.686
		c-0.256,2.083-0.859,2.653-2.913,2.803c-3.526,0.253-3.526,0.253-3.526-3.19c0-3.533,0-7.064,0-10.597
		C104.748,291.441,104.725,291.441,104.702,291.441z"/>
	<path fill-rule="evenodd" clip-rule="evenodd" fill="#FFFFFF" d="M552.465,274.681c-3.171,0.741-5.611-0.64-7.884-2.317
		c-1.854-1.37-3.211-3.209-4.35-5.244c-1.994-3.561-1.436-6.967,0.332-10.371c0.218-0.417,0.503-0.878,0.971-0.889
		c0.565-0.013,0.624,0.598,0.783,1.01c0.953,2.445,2.314,4.667,3.757,6.837c0.695,1.049,0.949,1.973,0.02,3.027
		c-0.763,0.867-0.419,1.687,0.297,2.441c1.518,1.597,3.116,3.098,4.944,4.339C551.747,273.795,552.238,273.989,552.465,274.681z"/>
	<path fill-rule="evenodd" clip-rule="evenodd" fill="#FFFFFF" d="M195.357,262.757c2.416,0.042,3.272,0.956,3.204,3.415
		c-0.082,2.959-1.18,4.085-3.946,4.041c-2.386-0.037-3.432-1.253-3.351-3.894C191.34,263.82,192.616,262.71,195.357,262.757z"/>
	<path fill-rule="evenodd" clip-rule="evenodd" fill="#FFFFFF" d="M142.944,262.754c2.451,0.025,3.299,0.896,3.264,3.353
		c-0.043,2.97-1.134,4.127-3.868,4.108c-2.444-0.017-3.414-1.112-3.385-3.823C138.982,263.827,140.19,262.726,142.944,262.754z"/>
	<path fill-rule="evenodd" clip-rule="evenodd" fill="#FFFFFF" d="M111.845,265.96c-0.087,0.348-0.195,0.689-0.257,1.04
		c-0.516,2.926-2.842,4.147-5.542,2.886c-1.597-0.744-1.495-2.277-1.653-3.681c0.478-2.584,1.23-3.327,3.486-3.437
		C110.569,262.637,111.023,263.002,111.845,265.96z"/>
	<path fill-rule="evenodd" clip-rule="evenodd" fill="#FFFFFF" d="M430.596,266.189c-0.019,2.95-1.043,4.047-3.758,4.021
		c-2.492-0.023-3.413-1.058-3.406-3.828c0.005-2.474,1.243-3.633,3.876-3.631C429.896,262.754,430.611,263.502,430.596,266.189z"/>
	<path fill-rule="evenodd" clip-rule="evenodd" fill="#FFFFFF" d="M217.435,32.246c0.285-0.661,0.709-0.687,1.108-0.711
		c4.212-0.272,8.396-0.135,12.507,0.93c0.992,0.256,1.747,0.796,2.04,1.864c0.372,1.358-0.085,1.87-1.442,1.551
		c-1.014-0.237-1.956-0.682-2.759-1.303c-2.478-1.916-5.183-2.767-8.325-2.208C219.587,32.542,218.549,32.522,217.435,32.246z"/>
	<path fill-rule="evenodd" clip-rule="evenodd" fill="#FFFFFF" d="M228.565,177.47c0.452-0.18,0.142-0.886,0.649-1.066
		c0.337,1.027,0.298,2.492-0.491,2.696c-0.942,0.246-0.962-1.27-1.254-2.048c-1.092-2.906-0.329-5.74,0.526-8.546
		c0.143-0.473,0.372-0.954,0.935-1.132C229.416,170.776,227.264,174.059,228.565,177.47z"/>
	<path fill-rule="evenodd" clip-rule="evenodd" fill="#FFFFFF" d="M157.677,253.107c-0.633,3.943-4.281,3.589-6.624,5.021
		C152.349,255.325,154.578,253.752,157.677,253.107z"/>
	<path fill-rule="evenodd" clip-rule="evenodd" fill="#FFFFFF" d="M577.953,258.905c-1.677-1.59-2.202-3.418-1.868-5.539
		c0.059-0.381,0.224-0.689,0.662-0.701c0.43-0.012,0.601,0.307,0.765,0.636C578.384,255.062,578.752,256.857,577.953,258.905z"/>
	<path fill-rule="evenodd" clip-rule="evenodd" fill="#FFFFFF" d="M159.106,254.449c-0.234,0.072-0.437,0.028-0.449-0.231
		c-0.009-0.18,0.051-0.447,0.177-0.531c0.381-0.252,0.808-0.437,1.218-0.643c2.28-1.15,4.555-2.309,6.845-3.436
		c0.356-0.177,0.829-0.736,1.171-0.121c0.309,0.557-0.269,0.765-0.685,0.966c-2.574,1.246-5.146,2.495-7.72,3.743
		C159.48,254.285,159.293,254.365,159.106,254.449z"/>
	<path fill-rule="evenodd" clip-rule="evenodd" fill="#FFFFFF" d="M176.403,244.034c-0.558,0.529-0.759,0.756-0.995,0.937
		c-1.777,1.362-3.563,2.712-5.342,4.072c-0.362,0.276-0.734,0.716-1.168,0.225c-0.471-0.533,0.103-0.828,0.428-1.08
		c1.807-1.402,3.64-2.771,5.458-4.157c0.285-0.218,0.519-0.493,0.927-0.198C175.872,243.95,176.114,243.955,176.403,244.034z"/>
	<path fill-rule="evenodd" clip-rule="evenodd" fill="#FFFFFF" d="M262.255,42.325c0.333,1.46-0.293,2.603-1.479,3.334
		c-1.083,0.667-2.024-0.283-3.02-0.559c-0.408-0.114-0.596-0.408-0.461-0.819c0.167-0.51,0.555-0.859,1.009-1.108
		c0.28-0.153,0.467,0.069,0.611,0.295c0.341,0.531,0.488,1.493,1.265,1.298c0.888-0.222,1.552-0.954,1.822-1.922
		C262.053,42.661,262.169,42.498,262.255,42.325z"/>
	<path fill-rule="evenodd" clip-rule="evenodd" fill="#FFFFFF" d="M246.925,263.331c1.821,0.858,4.932,3.232,5.702,4.352
		C250.543,267.72,248.632,266.261,246.925,263.331z"/>
	<path fill-rule="evenodd" clip-rule="evenodd" fill="#FFFFFF" d="M360.354,259.067c0.552-1.803,1.606-3.055,2.443-4.422
		c0.167-0.275,0.436-0.318,0.601-0.042c0.246,0.416,0.644,0.804,0.293,1.389C362.92,257.275,361.91,258.276,360.354,259.067z"/>
	<path fill-rule="evenodd" clip-rule="evenodd" fill="#FFFFFF" d="M272.121,47.747c0.441,1.155,0.174,2.123,0.393,3.207
		c-0.809-0.083-1.694-0.064-1.876-0.771C270.365,49.124,271.25,48.486,272.121,47.747z"/>
	<path fill-rule="evenodd" clip-rule="evenodd" fill="#FFFFFF" d="M569.035,262.579c0.223,1.059-1.06,3.5-1.611,3.556
		c-0.084,0.008-0.207-0.037-0.257-0.101c-0.198-0.248-0.079-0.472,0.092-0.68c0.322-0.393,0.68-0.761,0.958-1.184
		C568.485,263.762,568.671,263.299,569.035,262.579z"/>
	<path fill-rule="evenodd" clip-rule="evenodd" fill="#FFFFFF" d="M419.332,250.507c-0.005,0.285-0.17,0.519-0.337,0.446
		c-0.651-0.28-1.194-0.716-1.451-1.409c-0.104-0.281,0.047-0.587,0.339-0.444C418.517,249.408,418.939,249.982,419.332,250.507z"/>
	<path fill-rule="evenodd" clip-rule="evenodd" fill="#FFFFFF" d="M242.839,257.816c0.562,0.42,1.133,0.829,1.682,1.265
		c0.247,0.196,0.439,0.468,0.144,0.763c-0.297,0.297-0.561,0.104-0.756-0.147c-0.43-0.553-0.838-1.125-1.256-1.69
		C242.714,257.942,242.777,257.881,242.839,257.816z"/>
	<path fill-rule="evenodd" clip-rule="evenodd" fill="#FFFFFF" d="M242.105,256.688c-0.775-0.657-1.516-0.723-1.522-1.466
		c-0.002-0.271,0.413-0.624,0.651-0.503C241.822,255.02,241.838,255.675,242.105,256.688z"/>
	<g>
		<path fill-rule="evenodd" clip-rule="evenodd" fill="#FFFFFF" d="M587.226,238.002c-0.651-6.626-1.312-13.252-1.987-19.874
			c-0.551-5.398-0.823-10.85-1.781-16.176c-1.028-5.717-1.504-11.468-2.074-17.22c-0.839-8.46-1.594-16.929-2.378-25.394
			c-0.858-9.28-1.702-18.561-2.564-27.841c-0.786-8.464-1.499-16.936-2.421-25.384c-0.477-4.361-0.5-8.595,1.544-12.587
			c0.773-1.508,0.889-3.021,0.525-4.607c-0.188-0.825-0.131-1.604,0.038-2.426c0.257-1.249,0.521-2.518,0.035-3.789
			c-0.18-0.467-0.419-0.842-0.973-0.811c-0.517,0.029-0.849,0.319-0.961,0.837c-0.117,0.549-0.271,1.093-0.349,1.648
			c-0.414,2.998-0.53,6.016-0.624,9.3c-0.183-0.602-0.346-0.967-0.402-1.348c-0.654-4.301-1.236-8.614-1.947-12.905
			c-0.801-4.845-1.464-9.719-2.683-14.486c-0.277-1.086-0.545-2.276-1.736-2.727c-0.761-0.288-0.803-0.756-0.818-1.411
			c-0.017-0.657-0.09-1.334-0.276-1.963c-1.038-3.528-3.129-6.415-5.654-9.011c-0.26-0.269-0.568-0.799-1.273-0.339
			c0.664,1.472,1.315,2.956,2.001,4.423c0.778,1.669,0.882,3.353,0.169,5.06c-0.38,0.916-0.872,1.41-1.749,0.41
			c-0.538-0.614-1.128-1.19-1.742-1.73c-1.69-1.484-2.511-1.244-3.234,0.879c-0.149,0.439-0.163,1.181-0.911,0.961
			c-2.614-0.768-5.49-0.672-7.788-2.534c-0.812-0.657-1.836-1.395-3.065-0.504c-0.499,0.363-0.991-0.02-1.319-0.444
			c-0.383-0.498,0.238-0.678,0.372-1.016c0.271-0.671,1.122-0.631,1.518-1.213c-1.532-1.263-3.323-1.917-5.006-2.765
			c-1.483-0.747-2.981-0.684-4.449-0.001c-1.062,0.495-2.094,1.063-3.12,1.636c-2.955,1.652-5.319,4.146-8.342,5.731
			c-4.887,2.563-8.71,6.378-11.306,11.177c-0.923,1.705-2.102,2.74-3.527,3.761c-1.441,1.034-3.105,1.885-3.26,3.994
			c-0.026,0.352-0.309,0.692-0.768,0.52c-0.451-0.169-0.409-0.636-0.275-0.917c0.348-0.735,0.798-1.422,1.213-2.125
			c0.209-0.356,0.498-0.75,0.057-1.083c-0.369-0.277-0.798-0.101-1.137,0.156c-0.46,0.349-0.727,0.849-0.97,1.363
			c-0.615,1.307-1.403,2.509-2.373,3.575c-0.796,0.878-1.645,1.726-3.161,1.888c4.021-5.905,8.843-10.957,12.09-17.101
			c-0.975,0.264-1.541,0.916-2.12,1.562c-1.502,1.679-3.002,3.362-4.536,5.013c-0.494,0.532-1.144,1.075-1.846,0.388
			c-0.663-0.648-0.911-1.507-0.361-2.375c0.213-0.335,0.598-0.557,0.864-0.864c0.351-0.402,1.4-0.537,0.803-1.322
			c-0.466-0.614-1.261-0.455-1.977-0.138c-0.661,0.291-0.918,1.091-1.669,1.273c-0.306-0.61,0.161-0.997,0.37-1.421
			c2.611-5.289,5.728-10.28,9.109-15.104c1.996-2.848,4.082-5.635,6.102-8.469c0.302-0.423,0.969-0.911,0.541-1.428
			c-0.337-0.408-0.932,0.07-1.375,0.287c-0.464,0.229-0.938,0.448-1.462,0.415c-1.461-0.09-2.335,0.682-3.104,1.835
			c-5.264,7.891-9.977,16.096-14.083,24.646c-0.773,1.609-1.682,3.177-1.438,5.091c0.073,0.573-0.308,1.049-0.64,1.521
			c-1.857,2.637-3.683,5.298-5.533,7.938c-3.292,4.694-6.643,9.343-10.248,13.761c-0.472-0.097-0.012-0.717-0.624-0.762
			c-2.846,5.41-5.609,10.885-8.041,16.522c-0.079,0.185-0.231,0.483-0.161,0.565c0.844,0.978-0.109,1.52-0.523,2.157
			c-0.36,0.555-0.821,1.047-1.253,1.555c-0.709,0.838-1.403,1.778-1.209,2.879c0.189,1.084-0.191,1.86-0.671,2.722
			c-0.496,0.893-0.875,1.852-1.284,2.792c-1.062,2.435-1.922,4.978-3.612,7.085c-0.8,0.998-1.679,1.864-1.37,3.368
			c0.107,0.525-0.251,1.251-1.02,1.859c-1.597-11.737-2.229-23.398-4.487-34.845c-2.276-11.525-6.848-22.332-10.292-33.513
			c2.74,4.908,5.338,9.878,7.874,14.879c2.55,5.028,5.037,10.088,7.553,15.134c0.168-0.069,0.335-0.138,0.503-0.207
			c-0.526-2.887,0.472-6.141-2.287-8.5c-0.287-0.245-0.446-0.692-0.559-1.076c-0.988-3.343-2.192-6.611-3.451-9.856
			c-3.775-9.725-8.16-19.124-14.746-27.334c-0.159-0.2-0.303-0.413-0.461-0.615c-0.357-0.46-0.208-0.922,0.145-1.238
			c0.389-0.348,0.734-0.018,1.064,0.257c0.414,0.343,0.629,0.934,1.387,1.086c-0.045-0.896-0.152-1.764,0.247-2.547
			c0.552-1.079,0.347-2.104-0.277-3.05c-0.618-0.936-1.291-1.839-1.988-2.719c-1.143-1.44-2.53-2.682-3.404-4.342
			c-1.771-3.361-5.401-4.861-8.946-3.665c-1.411,0.477-2.833,0.87-4.297,1.127c-0.253,0.044-0.519,0.112-0.664-0.184
			c-0.114-0.231,0.054-0.386,0.206-0.516c1.32-1.128,2.527-2.442,3.993-3.33c2.254-1.366,2.574-2.828,0.734-4.788
			c-0.815-0.868-1.895-1.362-2.802-2.095c-0.409,0-0.82,0-1.231,0c-1.263,3.051-3.51,5.238-6.206,7.02
			c-0.889,0.588-1.636,0.75-2.111-0.573c-0.567-1.575-1.716-2.786-2.957-3.859c-2.776-2.4-5.019-2.057-6.949,1.064
			c-0.471,0.763-1.057,1.057-1.896,1.326c-1.538,0.495-3.18,1.134-3.502,3.026c-0.12,0.709-0.362,1.222-0.826,1.723
			c-8.104,8.703-13.136,19.186-17.075,30.208c-4.568,12.788-9.657,25.362-14.77,37.935c-5.9,14.513-11.497,29.132-15.364,44.356
			c-2.82,11.1-4.771,22.331-4.965,33.795c-0.088,5.173-0.037,10.335-0.561,15.496c-0.322,3.198-0.667,6.404-0.222,9.653
			c1.03,7.504,2.401,14.985,1.938,22.62c-0.034,0.537,0.26,0.914,0.479,1.374c0.898,1.869,2.626,3.488,1.927,5.901
			c-0.547,1.89-0.049,3.499,1.36,4.895c0.66,0.656,1.471,1.314,1.197,2.482c-0.128,0.543,0.199,0.7,0.718,0.676
			c0.821-0.039,1.443-0.344,1.96-1.017c0.47-0.613,0.734-1.456,1.541-1.759c0.544,0.655-0.089,1.524,0.57,2.065
			c1.055-0.344,0.599-1.485,1.05-2.165c0.715,0.432,0.643,0.925,0.465,1.52c-0.131,0.435-0.762,0.939-0.183,1.344
			c0.41,0.288,0.979-0.054,1.443-0.252c0.376-0.159,0.739-0.357,1.095-0.559c0.546-0.309,1.136-0.671,1.714-0.26
			c0.584,0.413,0.079,1.043,0.095,1.573c0.008,0.276-0.317,0.639,0.085,0.798c0.437,0.171,0.641-0.244,0.79-0.555
			c0.365-0.753,0.29-1.676,0.87-2.462c0.688,1.352,0.96,2.701,1.054,4.083c0.149,2.146,0.234,4.297,0.368,6.443
			c0.053,0.813,0.528,1.295,1.315,1.492c0.697,0.177,1.338,0.088,1.843-0.444c0.549-0.575,0.36-1.197,0.08-1.848
			c-0.384-0.889-0.746-1.786-0.892-2.768c-0.101-0.669-0.124-1.116,0.639-1.462c0.813-0.365,1.258-0.084,1.674,0.523
			c1.241,1.814,0.999,3.774,0.566,5.757c-0.12,0.55-0.662,1.188,0.182,1.602c0.711,0.349,1.787,0.281,1.974-0.269
			c0.667-1.985,2.556-1.992,3.952-2.783c0.556-0.314,1.099-0.54,0.806-1.386c-0.215-0.622,0.167-1.083,0.718-1.365
			c0.688-0.354,0.845,0.185,1.106,0.646c0.444,0.782,0.805,0.423,1.017-0.174c0.134-0.383,0.131-0.805-0.053-1.197
			c-1.312,0.389-1.986-0.229-2.002-1.849c-0.005-0.555-0.085-1.212,0.632-1.396c0.619-0.157,0.881,0.395,1.173,0.805
			c1.326,1.872,1.271,3.919,0.814,6.041c-0.241,1.123-0.62,2.278,0.327,3.852c0.963-2.854,4.173-4.456,2.63-7.892
			c-0.116-0.262-0.077-0.61-0.054-0.914c0.203-2.762,0.152-5.516-0.128-8.272c-0.06-0.597,0.098-1.219,0.188-1.826
			c0.524-3.515,2.064-6.743,2.896-10.176c0.371-1.533,0.49-3.187,1.362-4.531c1.829-2.817,2.354-5.581,1.735-9.086
			c-1.581-8.946-1.398-18.062-1.337-27.128c0.044-6.56,0.432-13.114,1.435-19.604c0.54-3.496,0.575-7.057,1.249-10.515
			c0.996-5.126,2.565-10.114,4.213-15.072c4.066-12.246,9-24.167,13.571-36.222c1.171-3.087,2.418-6.145,3.663-9.301
			c0.831,0.817,0.365,1.936,1.055,2.63c0.632-1.017,0.644-1.018,0.4-3.897c-0.059-0.693,0.01-1.242,0.835-1.346
			c0.743-0.093,1.196,0.238,1.283,0.978c0.084,0.71,0.139,1.427,0.15,2.142c0.116,7.178-0.248,14.344-0.593,21.509
			c-0.247,5.115-0.525,10.229-0.832,15.341c-0.432,7.156-0.909,14.31-1.344,21.466c-0.026,0.459-0.274,1.021,0.302,1.42
			c0.871-0.438,0.963-1.602,1.868-2.185c0.257,0.656,0.435,1.274,0.058,1.598c-0.812,0.699-0.568,1.502-0.344,2.244
			c0.201,0.669,0.014,1.922,0.938,1.83c0.877-0.089,0.751-1.298,0.854-2.084c0.039-0.295-0.035-0.615-0.108-0.912
			c-0.212-0.865-0.104-1.707,0.002-2.584c0.548-4.527,1.969-8.892,2.49-13.424c0.05-0.43-0.238-1.472,1.009-1.124
			c0.411,0.114,0.463-0.664,0.208-0.796c-1.167-0.605-0.33-1.265-0.12-1.896c0.171-0.523,0.734-1.003,0.466-1.567
			c-0.884-1.859-0.446-3.685-0.28-5.625c0.509-5.967,0.827-11.956,0.912-17.952c0.03-2.155-0.136-4.343,0.291-6.614
			c0.927,0.63,0.974,1.343,0.922,2.221c-0.322,5.413-0.917,10.822-0.281,16.257c0.655,5.598,0.952,11.222,1.204,16.851
			c0.204,4.576-0.346,9.077-0.795,13.616c-0.738,7.491-0.988,15.029-1.575,22.537c-0.547,6.994-1.318,13.972-1.894,20.965
			c-0.674,8.216-1.247,16.439-1.853,24.66c-0.084,1.124-0.121,2.249,0.267,3.346c0.753,2.128,0.854,4.286,0.344,6.493
			c-0.193,0.839-0.357,1.693-0.206,2.586c0.669,3.97,2.014,7.704,3.833,11.281c0.57,1.116,1.256,2.297,2.425,2.666
			c1.699,0.536,1.092,0.959,0.269,1.794c-0.847,0.859-1.234,1.886-0.124,2.941c0.399,0.381,0.659,0.911,0.984,1.37
			c0.294,0.415,0.676,0.616,1.192,0.488c0.409-0.103,0.909-0.599,1.197,0.012c0.253,0.535,0.327,1.174-0.052,1.763
			c-0.439,0.685-0.935,1.354-1.244,2.1c-0.745,1.781,0.185,2.967,2.067,2.717c1.501-0.2,2.678-0.986,3.617-2.127
			c1.331-1.618,2.607-3.283,3.94-4.899c0.722-0.876,1.542-1.054,2.541-0.312c0.647,0.479,1.407,0.827,2.151,1.157
			c0.825,0.365,1.595,0.252,2.188-0.478c-0.065-0.612-1.08-0.532-0.871-1.37c0.918-0.21,1.86-0.437,2.81-0.64
			c1.727-0.37,3.054-1.187,3.992-2.793c1.11-1.896,2.457-3.653,3.738-5.444c0.271-0.379,0.694-1.24,1.204-0.33
			c0.762,1.362,1.464,1.367,2.45,0.28c0.251-0.275,0.713-0.383,1.095-0.51c1.068-0.354,1.704-1.055,1.954-2.162
			c0.157-0.695,0.393-1.38,0.644-2.049c2.886-7.664,5.999-15.247,8.627-22.998c4.14-12.215,7.434-24.715,11.86-36.835
			c3.224-8.825,5.223-18.236,11.659-25.649c0.37,0.152,0.08,0.967,0.774,1.12c0.185-0.331,0.389-0.676,0.577-1.031
			c5.535-10.448,11.229-20.809,17.417-30.889c0.4-0.654,0.742-1.812,1.588-1.59c0.706,0.187,0.007,1.281,0.216,1.945
			c0.023,0.069,0.135,0.111,0.271,0.217c0.297-0.405,0.601-0.802,0.887-1.212c3.28-4.695,6.463-9.46,10.044-13.939
			c0.438-0.546,0.772-1.126,1.17,0.014c0.091,0.258,0.171,0.661,0.562,0.626c0.44-0.039,0.531-0.435,0.578-0.796
			c0.04-0.303,0.032-0.614,0.032-0.92c-0.002-1.83,1.727-4.172,3.479-4.618c0.323-0.082,0.61-0.044,0.57-0.47
			c-0.037-0.392-0.343-0.456-0.664-0.489c-0.678-0.071-1.391,0.185-2.088-0.131c0.248-0.872,0.697-1.83,1.33-1.873
			c1.759-0.121,1.974-1.514,2.589-2.607c1.026-1.824,2.1-3.613,3.318-5.32c0.706-0.989,1.431-1.032,2.326-0.358
			c1.492,1.122,2.002,2.808,1.976,4.476c-0.075,4.723,1.099,9.308,1.314,14.01c0.188,4.117,0.961,8.229,1.276,12.364
			c0.559,7.305,1.214,14.613-0.008,21.92c-0.058,0.344-0.048,0.729,0.045,1.064c0.835,3.063,0.86,5.97-0.916,8.827
			c-0.825,1.325-0.877,3.081,0.248,4.349c1.08,1.215,0.941,2.523,0.792,3.86c-0.075,0.678-0.157,1.319,0.075,1.955
			c0.357,0.975,0.306,1.952-0.129,2.843c-0.622,1.274-0.771,2.643-0.372,3.896c1.19,3.736,0.174,7.566,0.665,11.364
			c0.492,3.804-0.194,7.76-0.377,11.647c-0.103,2.189-0.347,4.358-0.648,6.533c-0.189,1.358-0.195,2.745-0.683,4.073
			c-0.142,0.379-0.261,0.79-0.273,1.19c-0.242,7.117-0.503,14.234-0.666,21.352c-0.035,1.553,0.047,3.052-0.827,4.44
			c-0.323,0.515-0.513,1.194,0.039,1.692c0.203,0.183,0.877-0.229,0.72,0.526c-0.131,0.629-0.647,0.519-1.096,0.582
			c-0.369,0.052-0.926-0.26-1.062,0.286c-0.123,0.483,0.295,0.848,0.65,1.141c0.273,0.227,0.573,0.449,0.902,0.575
			c0.791,0.304,1.051,0.837,0.996,1.671c-0.111,1.637-0.17,3.276-0.191,4.916c-0.023,1.643-0.002,3.264,1.213,4.622
			c0.861,0.966,1.298,2.174,1.63,3.435c0.608,2.311,1.375,2.727,3.65,2.042c0.916-0.274,1.538-0.186,2.002,0.769
			c1.508,3.103,3.682,5.64,6.6,7.52c0.915,0.589,1.578,1.387,2.114,2.368c1.976,3.601,4.349,3.246,7.417,0.83
			c0.346-0.271,0.519-0.519,0.301-1.03c-1.063-2.495,0.358-4.843,0.515-7.271c0.019-0.273,0.239-0.572,0.441-0.792
			c0.278-0.304,0.704-0.437,0.758,0.134c0.146,1.52,1.151,2.987,0.127,4.592c-0.52,0.815,0.146,2.375,1.033,2.743
			c1.16,0.481,1.55-0.407,1.922-1.202c0.215-0.458,0.372-0.957,0.46-1.454c0.101-0.585,0.316-1.398-0.392-1.609
			c-0.659-0.196-0.786,0.637-1.048,1.104c-0.114,0.203-0.251,0.3-0.535,0.183c-0.055-0.865-0.229-1.761,0.177-2.653
			c1.648,1.119,3.515,0.975,5.282,1.183c0.706,0.084,1.232-0.488,1.281-1.258c0.25-3.842,1.331-7.56,1.668-11.39
			c0.053-0.591,0.018-1.288,0.712-1.592c0.954-0.416,0.932-1.232,0.938-2.071c0.037-4.408,0.086-8.815,0.128-13.223
			c0.065-6.865-0.275-13.791,3.05-20.085c0.22,0.379,0.254,0.939,0.309,1.499c0.559,5.562,0.562,11.15,0.795,16.727
			c0.344,8.262-0.129,16.494-1.062,24.706c-0.196,1.721,0.194,3.371,0.903,4.929c0.662,1.458,1.823,2.15,3.449,2.018
			c0.896-0.072,1.791-0.358,2.854,0.24c-0.246-1.671-0.251-3.086,0.044-4.493C587.41,249.757,587.807,243.906,587.226,238.002z
			 M410.774,34.086c-1.634,1.802-3.317,3.56-4.982,5.332c-0.082-0.068-0.164-0.137-0.247-0.205c1.489-1.921,2.972-3.848,4.478-5.757
			c0.227-0.289,0.458-0.874,0.921-0.556C411.479,33.269,411.041,33.793,410.774,34.086z M418.149,235.246
			c-0.654-1.175,0.601-1.613,1.05-2.579c0.704,1.019,0.987,1.805-0.03,2.518C418.832,235.419,418.428,235.746,418.149,235.246z
			 M425.267,246.546c-0.094,0.585-0.318,1.095-0.954,1.258c-0.594,0.154-0.914-0.247-1.274-0.638c-0.93-1.008-0.741-2.5-1.515-3.573
			c-0.648,0.264-0.122,0.922-0.781,1.394c-0.68-3.075-2.623-5.787-1.563-9.18c0.846,0.33,1.241,0.882,1.168,1.485
			c-0.249,2.027,1.157,3.118,2.271,4.421c0.791,0.928,1.472,1.952,2.18,2.949C425.192,245.221,425.377,245.854,425.267,246.546z
			 M446.38,156.9c-0.194,1.932-0.175,3.909-0.762,5.772c-0.458,1.449-1.148,2.824-1.737,4.232c-0.096-0.012-0.191-0.023-0.287-0.035
			c0.2-2.792,0.393-5.586,0.599-8.376c0.517-7.054,0.766-14.119,0.752-21.19c-0.004-1.996-0.168-3.99-0.212-5.986
			c-0.01-0.411-0.174-1.043,0.438-1.155c0.475-0.087,0.592,0.487,0.825,0.802c1.366,1.84,1.425,4.02,1.495,6.16
			C447.709,143.746,447.044,150.325,446.38,156.9z M453.336,243.212c-0.507-0.002-0.977-0.463-0.899-1.028
			c0.091-0.664,0.178-1.38,0.708-1.96c0.513,0.644,0.528,1.349,0.528,2.032C453.675,242.599,453.942,243.214,453.336,243.212z
			 M479.639,102.018c-2.77,4.657-5.477,9.357-8.411,13.91c-4.771,7.403-7.968,15.546-11.396,23.586
			c-1.113,2.614-2.136,5.267-3.248,8.02c-0.349-0.797-0.126-1.383,0.033-2.034c2.611-10.72,7.568-20.478,12.366-30.303
			c1.996-4.087,3.996-8.172,5.929-12.289c0.73-1.56,1.869-2.884,2.428-4.551c0.229-0.684,0.805-1.306,1.518-1.682
			c1.137-0.603,2.027-0.116,2.133,1.176C481.121,99.425,480.396,100.746,479.639,102.018z M520.158,77.652
			c-0.936,1.296-2.204,2.228-3.567,3.039c-0.337,0.201-0.672,0.282-0.961-0.042c-0.213-0.237-0.07-0.457,0.119-0.655
			c1.672-1.741,3.261-3.566,5.276-5.162C521.297,76.098,520.71,76.889,520.158,77.652z M528.599,64.693
			c0.644-0.057,1.041,0.439,0.907,0.95c-0.142,0.539-0.507,1.172-1.295,1.049c-0.4-0.062-0.781-0.246-1.181-0.325
			c-1.588-0.313-3.016-0.042-4.267,1.083c-2.129,1.915-4.513,3.532-6.555,5.556c-1.062,1.053-1.973,2.218-2.766,3.477
			c-0.238,0.379-0.547,0.886-0.47,1.263c0.304,1.492,0.441,2.794-1.514,3.215c-0.207,0.044-0.46,0.485-0.456,0.74
			c0.005,0.334,0.44,0.378,0.712,0.426c0.483,0.085,0.981,0.077,1.552,0.113c-0.408,0.612-0.706,1.236-1.55,0.607
			c-0.694-0.52-1.296-0.054-1.527,0.475c-1.583,3.617-4.753,5.973-7.067,9.007c-4.343,5.696-8.985,11.163-13.01,17.099
			c-0.515,0.759-1.036,0.919-1.779,0.456c-0.858-0.537-0.582-1.21-0.162-1.847c2.619-3.982,5.603-7.694,8.532-11.446
			c1.791-2.296,3.613-4.565,5.46-6.818c0.488-0.595,0.697-1.015,0.009-1.637c-0.827-0.746-0.329-1.432,0.253-2.109
			c4.115-4.779,8.643-9.158,13.223-13.476c4.241-3.999,8.522-7.964,13.164-11.507c0.525-0.4,1.073-0.765,1.898-1.35
			c-0.221,1.92-1.324,2.742-2.425,3.56c-0.396,0.295-1.06,0.504-0.903,1.063C527.505,64.754,528.106,64.737,528.599,64.693z
			 M561.085,69.351c-0.261-1.038-0.446-2.095-0.624-3.151c-0.081-0.488-0.208-0.882-0.725-1.064
			c-0.832-0.292-0.984-0.988-0.936-1.743c0.045-0.683-0.119-1.627,0.863-1.702c0.973-0.074,1.246,0.814,1.313,1.58
			c0.15,1.743,0.578,3.426,0.944,5.125c0.533,2.484,1.046,4.973,1.567,7.46C562.03,73.899,561.645,71.593,561.085,69.351z"/>
		<path fill-rule="evenodd" clip-rule="evenodd" fill="#FFFFFF" d="M498.039,53.353c0.929,0.293,1.254-0.96,1.81-1.571
			c0.102-0.11,0.162-0.259,0.244-0.387c1.339-2.048,2.396-4.278,4.005-6.15c0.563-0.655,1.176-1.291,1.611-2.026
			c0.355-0.6,0.64-1.521-0.147-1.896c-0.741-0.354-0.886,0.594-1.188,1.078c-0.109,0.173-0.184,0.376-0.319,0.521
			c-0.253,0.269-0.392,0.822-0.922,0.538c-0.391-0.208-0.584-0.617-0.456-1.049c0.188-0.633,0.458-1.241,0.688-1.862
			c0.198-0.54,0.411-1.281-0.091-1.544c-0.568-0.299-1.387-0.608-2.029-0.065c-0.372,0.315-0.627,0.797-0.87,1.241
			c-1.845,3.374-2.75,7.005-2.968,10.867C497.574,51.833,497.1,53.056,498.039,53.353z"/>
		<path fill-rule="evenodd" clip-rule="evenodd" fill="#FFFFFF" d="M548.148,48.588c0.678,0.45,1.368,0.896,2.102,1.244
			c1.89,0.898,3.793,1.769,5.722,2.58c0.347,0.146,0.945,0.915,1.214,0.042c0.185-0.599,0.874-1.396-0.36-1.973
			c-2.031-0.948-3.958-2.119-5.94-3.175c-0.682-0.364-1.422-0.564-2.334-0.483c-0.381,0.12-1.16-0.376-1.363,0.334
			C547.007,47.798,547.639,48.25,548.148,48.588z"/>
		<path fill-rule="evenodd" clip-rule="evenodd" fill="#FFFFFF" d="M417.596,248.115c-0.709-1.316-0.789-2.857-2.025-4.17
			C415.547,246.993,416.102,248.138,417.596,248.115z"/>
		<path fill-rule="evenodd" clip-rule="evenodd" fill="#FFFFFF" d="M451.919,246.69c-0.938,0-0.864,0.81-1.021,1.434
			c0.023,0.297-0.199,0.877,0.364,0.731c0.662-0.173,1.356-0.563,1.511-1.339C452.887,246.946,452.392,246.69,451.919,246.69z"/>
		<path fill-rule="evenodd" clip-rule="evenodd" fill="#FFFFFF" d="M487.892,159.464c-0.575,0.111-0.584,0.639-0.624,1.062
			c-0.033,0.357,0.258,0.502,0.674,0.493c0.495-0.143,0.505-0.642,0.54-1.063C488.51,159.61,488.231,159.398,487.892,159.464z"/>
	</g>
	<g>
		<path fill-rule="evenodd" clip-rule="evenodd" fill="#FFFFFF" d="M249.604,39.382c-2.136-2.385-3.545-4.814-1.565-7.966
			c0.08-0.125,0.098-0.29,0.14-0.438c0.672-2.363-0.014-3.783-2.231-4.858c-1.359-0.66-2.875-0.631-4.264-1.121
			c-2.77,0-5.539,0-8.308,0c-0.288,0.085-0.573,0.226-0.867,0.248c-6.793,0.519-13.535,1.467-20.262,2.51
			c-13.135,2.036-25.971,5.267-38.589,9.449c-7.093,2.352-13.915,5.476-21.186,7.313c-2.637,0.667-5.151,1.71-7.508,3.087
			c-4.514,2.636-8.704,5.762-12.999,8.722c-2.435,1.68-4.856,3.089-7.937,3.303c-3.06,0.213-6.001,0.94-8.74,2.58
			c-5.417,3.242-10.505,6.925-15.426,10.854c-7.812,6.24-15.268,12.872-21.883,20.396c-4.615,5.25-7.737,11.43-10.659,17.697
			c-4.93,10.573-7.952,21.605-7.55,33.398c0.254,7.445,2.102,14.174,9.04,18.205c3.121,1.814,4.759,4.47,5.813,7.702
			c0.126,0.39,0.318,0.762,0.409,1.159c0.477,2.071,1.679,3.605,3.242,5.029c5.917,5.393,12.43,9.683,20.329,11.574
			c0.486,0.116,1.011,0.212,1.345,0.671c0.802,1.102,1.985,1.545,3.229,1.929c2.199,0.676,4.371,1.442,6.573,2.111
			c5.727,1.737,11.416,3.624,17.36,4.536c1.195,0.183,2.366,0.204,3.514-0.53c-0.229-0.189-0.33-0.333-0.462-0.372
			c-7.408-2.221-14.678-4.854-22.002-7.323c-6.231-2.102-12.252-4.655-17.527-8.697c-0.495-0.377-1.123-0.798-0.739-1.48
			c0.426-0.756,0.977-0.021,1.439,0.119c0.75,0.231,1.424,0.728,1.545-0.683c0.093-1.083,1.08-1.303,1.998-1.193
			c0.701,0.082,1.385,0.349,2.061,0.578c4.454,1.52,8.777,3.46,13.346,4.599c6.502,1.619,13.111,2.76,19.723,3.854
			c0.843,0.142,1.85,0.019,2.463,0.708c1.653,1.861,3.852,1.843,6.045,1.955c5.315,0.273,10.639,0.453,15.838,1.786
			c3.189,0.817,6.291,1.795,8.941,3.862c0.836,0.654,1.107,1.365,0.773,2.403c-0.652,2.029-1.625,3.851-3.105,5.397
			c-1.361,1.423-3.078,2.545-3.752,4.552c-0.117,0.347-0.534,0.608-0.848,0.867c-1.539,1.268-3.053,2.569-4.642,3.77
			c-3.089,2.335-6.358,4.276-10.339,4.709c-1.825,0.199-3.683,0.433-5.428,0.968c-4.014,1.228-8.021,2.514-11.935,4.023
			c-7.826,3.017-15.815,5.262-24.209,5.938c-7.112,0.575-14.25,0.733-21.348,0.271c-4.93-0.32-9.234-2.443-11.984-6.959
			c-1.257-2.066-2.972-3.78-4.789-5.375c-0.546-0.478-1.219-1.068-1.911-0.622c-1.105,0.713-1.459-0.084-1.885-0.737
			c-1.915-2.94-3.405-6.069-4.142-9.523c-0.103-0.479,0.029-1.129-0.64-1.248c-0.593-0.104-0.9,0.441-1.199,0.83
			c-1.031,1.337-2.034,2.696-3.019,4.066c-0.848,1.179-1.901,1.073-2.979,0.47c-0.675-0.377-1.155-0.97-1.445-1.732
			c-1.045-2.757-0.765-5.406,0.445-8.048c0.233-0.51,0.937-1.062,0.3-1.777c-0.94-1.057-2.054-1.213-3.193-0.418
			c-0.461,0.32-0.928,0.638-1.357,1c-0.942,0.793-1.771,0.999-2.755-0.051c-0.553-0.592-1.338-1.207-2.263-0.32
			c-1.658,1.592-3.391,1.377-5.108,0.088c-0.695-0.521-1.35-1.096-2.026-1.643c-0.373-0.302-0.622-1.055-1.195-0.719
			c-0.541,0.316-0.132,0.976,0.044,1.375c1.24,2.806,0.705,5.113-1.789,6.936c-0.041,0.03-0.073,0.072-0.11,0.107
			c-0.999,0.986-1.614,0.944-2.518-0.157c-0.631-0.769-0.844-1.749-1.343-2.579c-0.306-0.51-0.649-1.199-1.411-0.848
			c-0.732,0.339-0.312,0.977-0.147,1.473c0.455,1.368,1.193,2.598,2.017,3.771c0.603,0.86,0.673,1.407-0.637,1.3
			c-0.764-0.063-1.526-0.146-2.29-0.208c-0.344-0.026-0.775-0.239-1.005,0.107c-0.268,0.406,0.057,0.762,0.307,1.092
			c0.494,0.65,0.99,1.303,1.463,1.971c0.273,0.384,0.375,0.796-0.269,0.884c-1.23,0.164-1.139,1.053-0.944,1.848
			c0.429,1.746,1.217,3.364,1.993,4.98c0.166,0.346,0.415,0.575,0.799,0.65c1.133,0.217,1.804,0.916,2.442,1.884
			c0.885,1.342,0.032,2.067-0.678,2.891c-0.683,0.792-0.393,2.502-1.612,2.516c-0.96,0.011-1.551-1.347-2.343-2.056
			c-0.624-0.559-1.27-1.071-2.187-0.839c-1.136,0.287-2.266,0.598-3.398,0.897c0,0.82,0,1.64,0,2.46
			c1.871,2.693,4.399,4.622,7.191,6.266c1.233,0.726,2.376,1.604,3.614,2.324c0.942,0.547,1.072,1.043,0.578,2.084
			c-2.233,4.702-1.53,8.272,2.104,12.031c2.568,2.654,5.649,4.513,8.928,6.129c1.915,0.944,3.92,1.763,5.542,3.227
			c0.377,0.341,0.736,0.709,0.236,1.129c-1.52,1.277-0.321,2.093,0.53,2.811c1.802,1.518,3.858,2.675,5.923,3.802
			c1.631,0.889,3.261,1.78,4.891,2.671c-2.685,0.26-5.254,0.867-7.536-1.282c-2.125-2.003-4.702-3.47-7.701-3.896
			c-1.15-0.162-1.937-0.772-2.662-1.635c-0.934-1.11-1.718-2.371-3.136-3.431c-0.036,1.454,0.532,2.39,1.284,3.201
			c1.119,1.206,2.418,2.203,3.84,3.04c5.787,3.401,12.044,5.628,18.514,7.267c2.879,0.729,5.88,1.312,8.819,0.936
			c2.1-0.27,3.926,0.199,5.833,0.703c1.287,0.339,2.587,0.65,3.845,1.078c3.077,1.045,6.14,1.427,9.309,0.347
			c1.201-0.409,2.554-0.694,3.734,0.004c1.628,0.962,3.353,0.882,5.071,0.647c2.583-0.353,5.163-0.771,7.712-1.311
			c12.178-2.579,24.082-6.169,35.952-9.875c3.36-1.05,6.701-2.16,10.171-3.28c-0.745-0.533-1.399,0.07-2.031-0.218
			c1.686-1.393,4.488-0.817,5.63-3.195c-0.734-0.442-1.231-0.001-1.758,0.1c-0.726,0.137-1.189,0.105-0.704-0.802
			c0.12-0.227,0.21-0.468,0.296-0.71c0.118-0.333,0.317-0.694,0.043-1.016c-0.362-0.425-0.772-0.101-1.119,0.047
			c-0.8,0.342-1.583,0.726-2.358,1.12c-10.253,5.21-21.038,8.754-32.441,10.358c-0.667,0.395-0.635,1.115-0.816,1.737
			c-0.454,1.568-1.208,2.109-2.922,2.1c-1.914-0.012-2.729-0.592-3.158-2.229c-0.125-0.478-0.043-1.043-0.556-1.363
			c-0.921,0.15-1.062,0.963-1.299,1.538c-0.546,0.274-0.851-1.097-1.296-0.128c-0.329,0.718-0.801,0.458-1.256,0.5
			c-0.219,0.02-0.396-0.126-0.426-0.353c-0.112-0.826,0.9-0.199,1.049-0.905c-1.029,0.091-2.194-0.584-2.311,1.349
			c-0.053,0.875-1.386,0.56-2.096,0.89c-0.252,0.116-0.599,0.007-0.602-0.278c-0.006-0.657,0.601-0.885,1.028-1.228
			c0.191-0.152,0.446-0.281,0.162-0.791c-4.707,0-9.516-0.009-14.325,0.012c-0.543,0.003-1.211-0.069-1.554,0.471
			c-0.433,0.685,0.554,0.836,0.648,1.349c-1.417,0.575-1.422,0.582-2.574-0.317c-0.495-0.386-0.66,0.083-0.794,0.344
			c-0.442,0.864-1.087,0.75-1.8,0.486c-0.166-0.515,0.539-0.907,0.204-1.418c-0.544-0.072-0.955,0.157-1.333,0.409
			c-0.974,0.648-1.633,0.672-2.291-0.547c-0.904-1.676-3.174-2.564-5.073-1.912c-1.669,0.572-3.23,0.381-4.819-0.007
			c-5.124-1.254-9.662-3.885-14.339-6.185c-0.046-0.023-0.026-0.179-0.056-0.436c0.678,0.062,1.339,0.055,1.97,0.189
			c5.255,1.115,10.496,2.292,15.758,3.376c3.393,0.697,6.705,1.898,10.252,1.727c4.607-0.223,9.232-0.229,13.821-0.646
			c5.457-0.496,11.005,0.235,16.382-1.646c2.861-1.003,6.03-1.09,9.028-1.739c12.175-2.633,24.692-3.956,36.148-9.374
			c0.73-0.346,1.525-0.646,2.307,0.012c0.237,0.199,0.552,0.201,0.827-0.067c1.67-1.635,1.852-1.66,3.792-1.031
			c0.364,0.117,0.825,0.072,1.207-0.028c1.183-0.313,2.349-0.674,3.476-1.178c3.846-1.715,7.391-3.952,10.925-6.211
			c0.527-0.337,1.008-0.767,1.52,0.026c0.67,1.038,1.381,0.628,1.961-0.06c0.924-1.094,1.777-2.249,2.646-3.39
			c0.064-0.084,0.008-0.258,0.008-0.344c-0.477-0.079-0.624,0.619-1.239,0.3c0.444-0.608,0.921-1.181,1.306-1.808
			c1.314-2.14,3.651-3.275,5.136-5.22c2.268-2.971,4.517-5.964,6.604-9.062c3.009-4.464,5.766-9.075,6.696-14.514
			c0.242-1.412,0.589-2.814,0.242-4.256c-1.163-4.827-2.32-9.656-3.496-14.481c-0.917-3.758-2.76-6.968-5.962-9.211
			c-3.121-2.188-6.579-3.752-10.202-4.928c-0.472-0.152-0.982-0.494-1.672-0.068c1.36,1.256,2.773,2.279,4.27,3.121
			c4.377,2.46,6.565,6.744,9.163,10.699c0.25,0.38,0.327,0.808-0.079,1.093c-0.457,0.319-0.604-0.236-0.829-0.44
			c-1.023-0.931-2.049-1.861-3.006-2.859c-2.458-2.562-5.708-3.946-8.6-5.861c-0.419-0.276-1.123-0.381-0.854-1.212
			c0.538-1.666-0.202-2.967-1.219-4.217c-1.3-1.596-2.694-3.094-4.334-4.338c-5.185-3.935-11.233-6.044-17.297-8.108
			c-0.722-0.246-1.612-0.741-2.223-0.389c-1.515,0.872-2.478-0.116-3.589-0.729c-1.208-0.668-2.399-1.367-3.623-2.004
			c-0.545-0.285-1.174-0.473-1.777-0.178c-1.158,0.57-2.08,0.015-2.994-0.572c-0.86-0.552-1.679-1.167-2.547-1.705
			c-0.624-0.386-1.324-0.537-2.065-0.354c-0.393,0.096-0.637,0.329-0.658,0.738c-0.016,0.322,0.085,0.755,0.409,0.723
			c1.578-0.161,1.729,1.183,2.245,2.091c0.43,0.756,0.963,1.256,1.804,1.531c2.819,0.925,5.621,1.902,8.427,2.864
			c4.21,1.444,8.464,2.789,12.225,5.274c0.286,0.189,0.801,0.315,0.661,0.72c-0.157,0.447-0.664,0.384-1.08,0.291
			c-0.25-0.055-0.499-0.117-0.746-0.183c-11.857-3.191-23.714-6.379-35.57-9.573c-5.762-1.553-11.521-3.121-17.416-4.718
			c1.742-0.703,3.398-0.305,5.05-0.302c-2.992-1.221-6.005-2.35-9.003-3.518c-1.189-0.465-1.478-1.432-0.587-2.2
			c1.721-1.483,3.616-2.511,6.029-1.649c5.69,2.034,11.387,4.048,17.086,6.054c2.27,0.798,4.548,1.575,6.836,2.321
			c0.684,0.225,1.359,0.087,1.717-0.625c0.34-0.676-0.221-0.993-0.63-1.382c-0.588-0.56-1.078-0.479-1.53,0.138
			c-0.624,0.854-1.256,0.49-1.991,0.117c-6.073-3.082-12.182-6.077-18.67-8.232c-4.266-1.416-8.629-2.626-12.417-5.204
			c-2.168-1.476-2.161-1.447-0.63-3.524c0.665-0.902,1.241-1.212,1.877-0.009c0.071,0.135,0.163,0.264,0.268,0.374
			c0.341,0.36,0.638,0.918,1.254,0.572c0.648-0.365,0.741-1.009,0.422-1.603c-0.359-0.67-0.821-1.299-1.315-1.88
			c-0.545-0.64-0.583-1.137-0.084-1.885c4.712-7.087,9.798-13.886,15.461-20.245c12.919-14.506,27.824-26.691,43.903-37.496
			c1.298-0.872,2.374-1.922,3.219-3.241c0.839-1.307,1.847-2.452,3.366-3.027c1.005-0.381,1.994-0.808,2.991-1.212
			c1.43-0.58,2.348-1.534,2.594-3.141c0.193-1.27-0.084-1.726-1.394-1.593c-1.175,0.119-2.274,0.572-3.358,1.039
			c-5.225,2.247-10.355,4.685-15.349,7.412c-0.526,0.287-1.045,0.83-2.059,0.428c2.285-1.869,3.565-4.517,6.294-5.662
			c0.478-0.201,1.19-0.412,1.097-1.115c-0.089-0.662-0.803-0.708-1.312-0.903c-1.067-0.407-2.268-0.413-3.301-1.004
			c0.32-0.554,0.849-0.475,1.257-0.652c0.269-0.116,0.651-0.125,0.691-0.502c0.039-0.376-0.325-0.486-0.571-0.643
			c-0.818-0.517-1.662-0.289-2.528-0.115c-0.723,0.145-1.417,0.69-2.549,0.258c4.909-2.163,9.541-4.173,14.147-6.241
			c3.918-1.759,7.904-3.418,11.295-6.141c1.911-1.536,1.953-2.977,0.261-4.785c-0.918-0.981-2.138-1.507-3.501-2.279
			c3.95-1.797,7.642-3.699,11.494-5.187c10.633-4.107,21.583-7.103,32.902-8.597c5.948-0.784,11.875-0.685,17.601,1.424
			c2.383,0.878,4.746,1.511,7.344,1.183c1.821-0.229,2.408,0.476,2.157,2.372c-0.214,1.618-0.695,3.198-0.92,4.815
			c-0.396,2.853,0.442,3.757,3.31,3.701c0.869-0.018,1.75-0.042,2.603-0.193C251.654,42.737,251.945,41.998,249.604,39.382z
			 M159.541,55.818c-3.787,1.382-7.561,2.799-11.357,4.151c-0.558,0.199-1.355,0.817-1.774,0.053
			c-0.343-0.621,0.43-1.143,0.831-1.636c2.042-2.505,5.043-3.358,7.882-4.394c1.757-0.641,3.671-0.864,5.525-1.219
			c1.645-0.316,3.185,0.121,5.057,0.849C163.422,54.435,161.476,55.111,159.541,55.818z"/>
		<path fill-rule="evenodd" clip-rule="evenodd" fill="#FFFFFF" d="M181.977,58.084c-3.02,1.083-4.636,3.511-6.235,6.021
			c-0.576,0.905-0.039,1.354,0.617,1.679c0.485,0.241,1.082,0.262,1.398,0.33c2.487,0.05,6.408-1.412,7.686-2.771
			c1.114-1.185,1.119-3.044,0.013-4.627C184.564,57.441,183.83,57.419,181.977,58.084z"/>
		<path fill-rule="evenodd" clip-rule="evenodd" fill="#FFFFFF" d="M114.865,156.479c-0.184,0.001-0.729-0.245-0.763,0.52
			c-0.031,0.719,0.499,0.639,0.941,0.67c2.283,0.166,4.568,0.319,6.851,0.498c0.483,0.037,0.959,0.138,1.005-0.543
			c0.047-0.693-0.493-0.656-0.942-0.686C119.671,156.786,117.386,156.642,114.865,156.479z"/>
	</g>
	<path fill-rule="evenodd" clip-rule="evenodd" fill="#FFFFFF" d="M89.565,268.132c-1.396,1.583-3.625,2.261-5.029,1.779
		c-0.292-0.101-0.403-0.231-0.376-0.531c0.065-0.733,0.556-1.049,1.185-1.204c0.241-0.061,0.505-0.041,0.758-0.042
		C87.152,268.13,88.201,268.132,89.565,268.132z"/>
	<path fill-rule="evenodd" clip-rule="evenodd" fill="#FFFFFF" d="M93.848,268.063c0.586,0.154,1.348,0.226,1.549,1.062
		c0.051,0.211-0.239,0.496-0.533,0.372c-0.63-0.271-1.483-0.267-1.751-1.035C92.985,268.097,93.431,268.036,93.848,268.063z"/>
	<path fill-rule="evenodd" clip-rule="evenodd" fill="#FFFFFF" d="M91.313,269.614c-0.435-0.035-0.979,0.114-0.949-0.636
		c0.023-0.601,0.436-0.594,0.859-0.601c0.488-0.008,0.943,0.006,0.95,0.68C92.18,269.718,91.698,269.581,91.313,269.614z"/>
	<path fill-rule="evenodd" clip-rule="evenodd" fill="#FFFFFF" d="M176.602,241.146c0.595-0.652,0.959-1.06,1.333-1.458
		c0.24-0.257,0.494-0.607,0.85-0.168c0.28,0.346,0.213,0.672-0.22,0.844C178.02,240.579,177.605,241.086,176.602,241.146z"/>
	<path fill-rule="evenodd" clip-rule="evenodd" fill="#FFFFFF" d="M454.181,300.796c-1.036-0.43-2.135-0.671-3.274-0.765
		c-2.651-0.218-5.298-0.507-7.944-0.793c-0.563-0.061-1.174-0.219-1.354-0.846c-0.207-0.707,0.377-1.087,0.789-1.537
		c0.391-0.43,0.829-0.475,1.377-0.458c1.226,0.037,2.464,0.054,3.685-0.058c4.407-0.4,7.599-3.293,8.294-7.56
		c0.408-2.492,0.351-4.974-1.043-7.41c0.617,0,0.968,0.007,1.316-0.002c1.966-0.042,2.74-0.946,2.637-3.065
		c-0.091-1.812-0.344-1.915-2.658-1.759c-2.527,0.171-4.999,0.284-7.552-0.505c-5.406-1.678-11.162,1.132-12.739,6.204
		c-1.449,4.661-1.067,9.102,3.096,12.561c-1.063,0.968-2.071,1.835-3.018,2.764c-1.385,1.36-1.405,2.581-0.141,4.052
		c1.237,1.44,2.951,1.964,4.693,2.436c2.65,0.718,5.392,0.723,8.087,0.812c3.734,0.124,4.699,3.29,2.953,6.068
		c-2.401,3.824-6.032,5.184-10.323,5.197c-1.345,0.005-1.622-0.601-0.871-1.763c0.843-1.305,2.015-2.303,3.163-3.325
		c1.075-0.959,1.15-2.516,0.245-3.565c-0.467-0.542-0.891-0.706-1.555-0.218c-2.736,2.006-5.401,4.092-7.416,6.863
		c-2.313,3.184-1.678,4.942,2.087,5.979c0.127,0.035,0.227,0.17,0.339,0.257c2.152,0,4.306,0,6.459,0
		c0.245-0.364,0.643-0.239,0.979-0.309c5.724-1.146,10.316-3.963,13.068-9.238C459.811,306.498,458.414,302.55,454.181,300.796z
		 M441.858,282.317c0.419-1.433,1.442-2.353,2.983-2.479c1.55-0.126,2.787,0.484,3.603,1.836c0.947,1.575,1.235,3.319,1.274,5.476
		c0.047,0.526-0.114,1.375-0.331,2.221c-0.347,1.361-0.976,2.483-2.497,2.764c-1.648,0.303-3.141-0.116-3.999-1.57
		C441.376,288.001,441.019,285.193,441.858,282.317z"/>
	<path fill-rule="evenodd" clip-rule="evenodd" fill="#FFFFFF" d="M280.505,262.787c2.542,0.014,3.299,0.769,3.3,3.284
		c0.001,2.916-1.162,4.16-3.871,4.14c-2.41-0.017-3.426-1.17-3.405-3.863C276.548,263.979,277.897,262.771,280.505,262.787z"/>
	<path fill-rule="evenodd" clip-rule="evenodd" fill="#FFFFFF" d="M173.446,284.05c-1.347-5.207-4.676-8.01-9.696-8.345
		c-6.177-0.414-10.313,1.856-12.446,6.882c-1.327,3.13-1.544,6.435-1.421,9.782c0.044,0.715,0.053,1.436,0.14,2.145
		c0.401,3.249,1.171,6.341,3.735,8.663c6.173,5.595,16.435,2.924,19.268-5.076C174.659,293.487,174.662,288.757,173.446,284.05z
		 M166.365,297.94c-0.875,2.26-2.297,3.424-4.214,3.428c-2.012,0.003-3.673-1.174-4.39-3.416c-1.45-4.543-1.507-9.137-0.11-13.713
		c0.41-1.347,1.125-2.542,2.362-3.294c2.355-1.432,5.224-0.22,6.414,2.677c0.813,1.978,0.866,4.082,1.047,6.51
		C167.409,292.549,167.382,295.309,166.365,297.94z"/>
	<path fill-rule="evenodd" clip-rule="evenodd" fill="#FFFFFF" d="M499.052,301.42c-1.241-0.444-1.207-1.367-1.211-2.34
		c-0.009-2.61-0.003-5.222-0.003-7.833c0.031-0.002,0.065-0.002,0.097-0.002c0-2.509,0-5.019,0-7.529c0-0.103,0-0.204-0.001-0.307
		c-0.116-4.389-1.637-6.889-4.944-7.481c-4.308-0.772-8.445-0.08-12.29,2.123c-0.899,0.514-1.131,1.218-0.968,2.176
		c0.452,2.685,1.137,3.061,3.737,2.141c1.921-0.679,3.812-1.49,5.924-1.432c1.081,0.032,1.682,0.459,1.918,1.558
		c0.287,1.327,0.104,2.656,0.212,3.979c0.071,0.92-0.319,1.133-1.149,1.085c-1.863-0.109-3.662,0.309-5.434,0.831
		c-5.327,1.576-8.116,6.296-6.9,11.644c1.147,5.046,7.887,7.602,12.771,4.784c0.809-0.466,1.292-0.55,2.09,0.058
		c1.737,1.319,4.03,1.233,5.727-0.011C499.531,304.2,499.884,301.717,499.052,301.42z M491.507,294.964
		c0,1.146,0.051,2.017-0.014,2.881c-0.068,0.922-0.302,1.74-1.245,2.28c-2.164,1.232-4.411,1.112-5.382-0.404
		c-1.118-1.745-0.454-5.315,1.234-6.563c0.285-0.21,0.595-0.396,0.917-0.543c1.318-0.605,2.88-1.258,4.101-0.633
		C492.159,292.514,491.219,294.137,491.507,294.964z"/>
	<path fill-rule="evenodd" clip-rule="evenodd" fill="#FFFFFF" d="M327.655,301.415c-1.057-0.409-1.152-1.201-1.157-2.092
		c-0.012-2.713-0.004-5.428-0.004-8.142c0.022,0,0.046,0,0.069,0c0-2.766,0.082-5.532-0.021-8.294
		c-0.152-4.143-1.679-6.388-4.941-6.96c-4.369-0.766-8.557-0.072-12.406,2.249c-0.394,0.238-0.756,0.479-0.787,1.035
		c-0.074,1.271,0.086,2.557,1.024,3.404c0.747,0.676,1.735,0.07,2.599-0.212c1.888-0.618,3.714-1.425,5.762-1.483
		c1.412-0.041,2.131,0.583,2.247,1.916c0.099,1.171,0.047,2.354,0.146,3.523c0.081,0.954-0.27,1.225-1.207,1.201
		c-2.6-0.067-5.085,0.513-7.405,1.677c-5.562,2.785-6.1,8.822-4.103,12.696c2.016,3.909,8.005,5.202,12.298,2.682
		c0.766-0.449,1.145-0.182,1.72,0.22c1.942,1.358,4.292,1.277,5.969-0.136C328.28,304.006,328.467,301.729,327.655,301.415z
		 M320.152,295.053c0,1.179,0.01,2.047-0.004,2.914c-0.018,1.134-0.581,1.88-1.604,2.371c-2.21,1.06-4.219,0.788-5.055-0.736
		c-1.251-2.282-0.351-5.701,1.88-6.854c1.375-0.709,3.048-1.427,4.384-0.776C320.83,292.496,319.916,294.209,320.152,295.053z"/>
	<path fill-rule="evenodd" clip-rule="evenodd" fill="#FFFFFF" d="M364.815,301.42c-1.248-0.426-1.225-1.38-1.233-2.345
		c-0.024-2.558-0.008-5.116-0.008-7.674c0.028-3.223,0.365-6.453-0.046-9.668c-0.422-3.31-1.803-5.23-4.606-5.765
		c-4.42-0.842-8.643-0.123-12.565,2.161c-0.699,0.409-1.092,1.029-0.921,1.779c0.664,2.904,0.926,3.535,3.795,2.48
		c1.909-0.703,3.799-1.501,5.912-1.461c1.186,0.023,1.773,0.54,1.969,1.684c0.208,1.221,0.108,2.45,0.199,3.671
		c0.079,1.047-0.339,1.297-1.321,1.278c-2.437-0.047-4.784,0.481-6.991,1.502c-4.877,2.258-6.914,8.024-4.529,12.69
		c2.072,4.056,8.053,5.432,12.51,2.827c0.612-0.357,0.916-0.254,1.442,0.127c2.044,1.475,4.382,1.454,6.094,0.044
		C365.323,304.086,365.587,301.683,364.815,301.42z M353.039,300.955c-1.153,0.104-2.205-0.466-2.532-1.593
		c-0.807-2.764-0.479-5.957,3.069-7.072c3.456-1.087,3.714-0.903,3.711,2.898c0,0.562-0.04,1.125,0.007,1.682
		C357.562,300.129,355.526,300.729,353.039,300.955z"/>
	<path fill-rule="evenodd" clip-rule="evenodd" fill="#FFFFFF" d="M223.389,281.375c-0.376-1.239-1.003-2.347-1.908-3.289
		c-4.287-4.464-13.594-2.797-16.681,2.99c-1.734,3.252-2.22,6.769-2.16,10.391c0,0.87-0.071,1.749,0.012,2.611
		c0.38,3.957,1.091,7.919,4.843,10.101c4.407,2.563,9.141,2.381,13.708,0.309c2.122-0.965,2.473-2.548,1.625-4.776
		c-0.23-0.604-0.501-0.603-1.022-0.33c-1.137,0.59-2.368,0.938-3.621,1.193c-5.405,1.103-8.445-1.109-9.01-6.489
		c-0.095-0.904,0.159-1.188,1.051-1.162c1.38,0.04,2.767,0.026,4.146-0.056c2.749-0.164,5.527-0.145,8.143-1.241
		c0.881-0.37,1.399-0.865,1.482-1.885C224.224,286.916,224.221,284.117,223.389,281.375z M217.747,287.033
		c-0.002,0.768-0.358,1.14-1.067,1.193c-1.221,0.096-2.445,0.151-3.667,0.226c-0.002-0.019-0.002-0.037-0.003-0.054
		c-0.767,0-1.546-0.088-2.297,0.018c-1.369,0.191-1.509-0.484-1.305-1.569c0.382-2.024,0.85-3.991,2.436-5.485
		c2.017-1.899,4.5-1.333,5.437,1.279C217.789,284.063,217.752,285.547,217.747,287.033z"/>
	<path fill-rule="evenodd" clip-rule="evenodd" fill="#FFFFFF" d="M58.263,282.145c-0.674-2.719-2.163-4.833-4.896-5.888
		c-5.598-2.162-12.047,0.433-14.429,5.904c-1.986,4.562-2.032,9.346-1.343,14.174c0.331,2.319,1.103,4.475,2.667,6.273
		c2.365,2.722,5.538,3.284,8.907,3.304c2.122,0.023,4.204-0.227,6.149-1.104c2.372-1.068,2.929-2.453,2.19-4.938
		c-0.193-0.646-0.374-0.863-1.031-0.51c-1.181,0.636-2.468,0.996-3.782,1.228c-5.398,0.956-8.483-1.271-8.859-6.327
		c-0.071-0.949,0.083-1.405,1.186-1.347c1.429,0.079,2.87,0.016,4.302-0.059c2.706-0.14,5.433-0.188,7.984-1.298
		c0.612-0.265,1.215-0.47,1.289-1.321C58.832,287.521,58.923,284.805,58.263,282.145z M50.971,288.298
		c-1.125,0.021-2.249,0.005-3.374,0.005c0,0.031,0,0.063,0,0.096c-0.46,0-0.92,0-1.382,0c-2.513,0-2.537-0.006-2-2.489
		c0.359-1.663,0.931-3.231,2.183-4.482c1.948-1.947,4.513-1.426,5.468,1.137c0.509,1.365,0.561,2.791,0.595,4.222
		C52.484,287.812,51.938,288.279,50.971,288.298z"/>
	<path fill-rule="evenodd" clip-rule="evenodd" fill="#FFFFFF" d="M570.226,284.237c-0.354-3.545-1.602-6.721-5.275-7.942
		c-4.989-1.658-12.039-0.688-14.652,6.438c-1.906,5.203-1.972,10.534-0.573,15.854c0.762,2.899,2.472,5.263,5.347,6.346
		c3.919,1.477,7.945,1.429,11.85-0.139c2.388-0.959,2.851-2.229,2.235-4.779c-0.195-0.807-0.441-1.059-1.208-0.612
		c-1.165,0.681-2.474,0.971-3.781,1.194c-5.425,0.932-8.614-1.531-8.714-6.636c-0.017-0.818,0.212-1.065,1.005-1.035
		c1.33,0.051,2.663,0.014,3.468,0.014c3.227-0.257,5.95-0.212,8.551-1.188c1.194-0.447,1.878-1.082,1.816-2.45
		C570.216,287.616,570.392,285.911,570.226,284.237z M562.428,288.317c-1.075,0.023-2.149,0.005-3.225,0.005
		c0,0.025,0,0.051,0,0.076c-0.46,0-0.921,0-1.382,0c-2.398,0-2.425-0.006-2.013-2.295c0.341-1.893,0.991-3.659,2.511-4.965
		c1.863-1.599,4.216-1.033,5.104,1.258c0.521,1.347,0.646,2.771,0.656,4.216C564.09,287.772,563.518,288.292,562.428,288.317z"/>
	<g>
		<path fill-rule="evenodd" clip-rule="evenodd" fill="#FFFFFF" d="M325.636,182.658c-0.18-7.789-0.026-15.586-0.045-23.379
			c-0.012-5.385-0.39-10.751-1.015-16.097c-0.949-8.084-1.907-16.167-2.893-24.248c-1.03-8.432-2.066-16.866-3.884-25.175
			c-1.942-8.875-5.059-17.394-8.105-25.926c-1.535-4.299-3.546-8.394-5.862-12.331c-0.759-1.291-1.532-2.603-2.99-3.328
			c2.223,6.921,5.713,13.367,7.281,20.815c-1.207-1.597-1.978-3.094-2.764-4.582c-1.648-3.124-3.283-6.256-4.939-9.376
			c-0.361-0.682-0.697-1.44-1.741-0.782c-0.47,0.298-0.839-0.274-1.131-0.524c-0.344-0.294,0.103-0.649,0.306-0.895
			c0.324-0.392,0.739-0.707,1.102-1.069c0.318-0.317,0.503-0.775,0.165-1.083c-0.309-0.281-0.631,0.139-0.904,0.341
			c-0.206,0.151-0.398,0.326-0.571,0.514c-0.678,0.742-1.034,0.677-1.191-0.377c-0.123-0.817,0.027-1.944-0.977-2.21
			c-0.979-0.261-1.425,0.821-2.076,1.356c-0.118,0.097-0.242,0.207-0.312,0.338c-0.463,0.864-0.93,0.678-1.561,0.127
			c-0.447-0.391-0.884-1.219-1.664-0.67c-1.169,0.824-2.98,1.157-2.7,3.219c0.007,0.05-0.126,0.12-0.196,0.184
			c-0.332,0.013-0.408-0.257-0.502-0.481c-0.256-0.604-0.062-1.718-1.077-1.53c-0.894,0.165,0.115,1.157-0.357,1.689
			c-0.49-0.27-0.591-0.803-0.833-1.229c-1.342-2.355-2.475-4.845-4.188-6.967c-2.088-2.586-3.594-3.538-6.26-0.541
			c-1.228,1.38-1.298,1.927,0.133,3.111c3.25,2.69,4.824,6.557,6.976,10.012c0.367,0.589,0.279,1.201-0.812,1.292
			c-1.523,0.125-2.251-0.425-2.8-1.836c-0.844-2.172-1.464-4.459-2.866-6.711c-0.278,1.551-0.996,1.188-1.695,0.682
			c-0.537-0.389-0.985-0.912-1.549-1.248c-0.469-0.28-1.25-0.537-1.14,0.454c0.143,1.282-0.537,1.336-1.455,1.261
			c-0.911-0.074-2.005,0.333-2.686-0.251c-0.573-0.492-0.04-1.518-0.146-2.309c-0.2-1.475-1.281-2.436-2.974-2.551
			c-1.463-0.101-2.833,0.726-2.875,2.137c-0.055,1.838-1.336,3.913,0.704,5.515c0.102,0.08,0.057,0.395,0.023,0.591
			c-0.215,1.249,0.569,1.196,1.268,0.841c1.04-0.531,2.042-1.171,2.962-1.891c0.794-0.619,1.541-0.734,2.405-0.284
			c0.586,0.307,1.479,0.647,1.396,1.25c-0.092,0.672-1.05,0.539-1.676,0.666c-0.442,0.089-1.277-0.161-1.191,0.532
			c0.069,0.576,0.323,1.383,1.374,1.292c1.392-0.122,2.712,1.749,2.19,3.034c-0.312,0.769-0.727,1.38-1.695,0.58
			c-0.546-0.452-1.27-0.69-2.018-0.462c-0.574,0.174-1.091,0.425-0.709,1.193c1.008,2.026,2.994,2.191,4.32,0.355
			c0.146-0.203,0.238-0.464,0.673-0.469c0.636,1.954,1.24,3.943,1.635,6.483c-1.342-1.128-2.297-1.952-3.276-2.747
			c-0.626-0.509-1.367-0.592-1.973-0.068c-0.648,0.561-0.018,1.1,0.217,1.634c0.718,1.635,2.74,2.526,2.65,4.634
			c-0.004,0.094,0.312,0.222,0.496,0.298c0.938,0.387,1.207,1.149,1.27,2.088c0.184,2.77,0.794,5.433,1.669,8.084
			c2.016,6.116,4.065,12.227,5.309,18.571c1.012,5.164,2.117,10.302,3.006,15.496c1.267,7.409,2.801,14.773,3.872,22.221
			c1.928,13.416,2.74,26.898,2.551,40.447c-0.074,5.227,0.07,10.447,0.423,15.664c0.122,1.788,0.539,3.75-0.018,5.338
			c-0.671,1.909-0.19,3.371,0.439,4.984c0.316,0.809,0.711,1.593,0.54,2.509c-0.357,1.906,0.807,3.942-0.495,5.778
			c-0.089,0.125-0.058,0.465,0.05,0.581c0.922,0.989,0.252,1.925-0.087,2.849c-0.405,1.105-0.924,2.17-1.31,3.28
			c-0.362,1.041-0.932,2.167,0.504,2.939c0.327,0.177,0.182,0.549,0.174,0.848c-0.066,2.384-1.758,3.578-4.264,2.958
			c-0.402-0.101-0.78-0.396-1.073,0.072c-0.297,0.473,0.16,0.739,0.406,1.039c0.454,0.556,0.907,1.112,1.393,1.639
			c0.611,0.664,0.717,1.447,0.611,2.289c-0.166,1.321-0.601,1.543-1.663,0.765c-2.271-1.667-4.48-3.416-6.575-5.303
			c-0.655-0.589-1.064-1.244-1.233-2.188c-0.298-1.658-1.417-2.926-2.596-4.075c-0.26-0.253-0.629-0.875-1.14-0.41
			c-0.389,0.354,0.049,0.763,0.188,1.109c1.394,3.492,3.31,6.684,5.592,9.666c0.276,0.361,0.995,0.853,0.528,1.218
			c-0.674,0.528-1.053-0.292-1.377-0.774c-0.709-1.065-1.349-2.175-2.071-3.231c-0.333-0.488-0.71-1.144-1.452-0.867
			c-0.908,0.337-1.096-0.252-1.258-0.855c-0.176-0.659-0.529-1.212-0.863-1.789c-3.749-6.474-8.043-12.601-12.033-18.922
			c-2.344-3.711-4.208-7.556-5.022-11.921c-0.503-2.703-1.423-5.33-2.131-7.996c-0.61-2.299-1.784-4.387-1.826-6.923
			c-0.042-2.575,0.328-4.146,2.376-5.287c0.258-0.145,0.488-0.367,0.291-0.572c-0.646-0.67-1.425-1.163-2.374-1.293
			c-0.811-0.11-0.994,0.519-1.271,1.082c-0.572,1.162-1.08,2.369-2.043,3.483c-1.354-2.396-2.631-4.664-3.917-6.928
			c-0.708-1.249-1.46-2.477-2.507-3.473c-0.988-0.939-3.511-0.949-4.306-0.064c-0.317,0.355,0.238,2.745,0.763,3.271
			c0.292-0.227-0.072-0.715,0.478-0.949c0.447,0.959,0.905,1.913,1.334,2.879c0.17,0.383,0.409,0.977,0.781,0.767
			c1.211-0.681,1.058,0.312,1.257,0.899c0.616,1.803,0.44,3.896,2.043,5.341c0.765,0.69,0.82,1.686,0.974,2.963
			c-0.422-0.576-0.667-0.892-0.89-1.221c-2.27-3.354-4.709-6.579-7.415-9.596c-0.925-1.033-1.892-2.034-3.086-2.748
			c-0.938-0.562-1.58-0.32-1.64,0.873c-0.019,0.357-0.019,0.718-0.007,1.077c0.375,11.319,1.481,22.584,2.698,33.838
			c0.341,3.152,0.599,6.335,1.459,9.396c0.405,1.441,1.087,2.692,1.011,4.353c-0.371,8.084-0.544,16.181-0.733,24.273
			c-0.065,2.817,0.002,5.64,0.058,8.457c0.014,0.72-0.053,1.608,1.204,1.429c0.791-0.112,0.847,0.51,0.841,1.131
			c-0.011,1.141-0.225,2.303,0.198,3.542c0.589-0.39,0.686-0.881,0.82-1.351c0.664-2.32,1.069-4.679,1.199-7.095
			c0.103-1.891,0.3-3.775,0.53-5.653c0.12-0.981,0.583-1.314,1.359-0.416c1.037,1.201,2.068,2.408,3.127,3.591
			c0.407,0.454,0.834,0.77,0.561,1.561c-0.152,0.443-0.053,1.479,0.427,1.555c2.533,0.397,3.021,2.553,3.902,4.335
			c0.417,0.844,0.861,1.564,1.599,2.182c3.812,3.189,7.368,6.654,10.915,10.134c0.892,0.876,0.604,1.175-0.379,1.515
			c-1.475,0.51-2.867,1.427-4.284-0.281c-0.472-0.569-1.695-0.698-2.273-0.148c-0.557,0.528,0.396,0.979,0.694,1.463
			c0.13,0.213,0.263,0.475,0.259,0.711c-0.025,1.278,0.884,1.744,1.854,1.887c2.791,0.409,5.604,0.748,8.325-0.418
			c1.574-0.674,3.141-0.583,4.806-0.251c4.696,0.936,9.322,2.663,14.255,1.093c1.686-0.536,3.554-0.534,5.22-1.21
			c1.155-0.469,1.174,0.132,1.149,0.94c0.663,0.127,0.574-0.456,0.558-0.731c-0.112-1.799,0.849-2.807,2.389-3.441
			c0.278-0.113,0.527-0.298,0.63-0.613c2.043-3.257,5.275-5.234,8.166-7.578c3.279-2.658,6.235-5.593,8.469-9.23
			c3.039-4.945,5.46-10.19,7.788-15.49c0.194-0.44,0.178-1.142,0.795-1.217c1.142-0.14,1.177-0.97,1.253-1.785
			c0.139-1.529,0.22-3.065,0.367-4.593c0.774-8.106,1.544-16.211,2.353-24.312C324.815,197.374,325.807,190.072,325.636,182.658z
			 M288.962,63.715c-0.866-1.32-1.488-2.761-1.903-4.289c-0.069-0.256-0.13-0.523,0.069-0.713c0.164-0.157,0.404-0.087,0.514,0.104
			c0.756,1.318,1.643,2.523,2.804,3.526c0.18,0.156,0.134,0.573,0.177,0.789c-0.065,0.592-0.071,1.183-0.596,1.403
			C289.326,64.828,289.204,64.083,288.962,63.715z M291.234,157.495c-0.452-1.687-0.763-3.325-0.595-5.118
			c0.332-3.547-0.351-7.039-1.068-10.5c-0.248-1.197-0.016-2.204,0.791-3.224c0.471,0.423,0.427,0.934,0.468,1.404
			c0.957,11.166,1.897,22.334,2.869,33.5c0.43,4.94,1.161,9.862,1.101,14.836c-0.041,3.481-0.171,6.963-0.289,10.44
			c-0.019,0.596-0.173,1.185-0.265,1.776c-0.591-6.35-1.42-12.593-1.847-18.878c-0.297-4.37,0.42-8.68,0.407-13.025
			C292.795,164.896,292.217,161.164,291.234,157.495z M294.668,267.04c-0.79,0.126-1.599,0.152-2.588-0.098
			c0.644-0.948,1.503-1.036,2.262-1.289c0.444-0.149,1.019-0.227,1.119,0.393C295.539,266.523,295.16,266.961,294.668,267.04z
			 M308.422,75.552c0.049-0.491,0.24-0.95,0.792-0.932c0.533,0.019,0.748,0.446,0.75,0.956c-0.092,0.507-0.312,0.883-0.892,0.822
			C308.586,76.347,308.374,76.032,308.422,75.552z M310.487,82.154c-0.212-1.309-0.268-2.648-0.824-3.886
			c-0.142-0.315-0.321-0.723,0.206-0.879c0.406-0.121,0.538,0.234,0.625,0.516c1.112,3.611,2.305,7.199,3.036,10.93
			C311.947,86.864,310.892,84.658,310.487,82.154z"/>
		<path fill-rule="evenodd" clip-rule="evenodd" fill="#FFFFFF" d="M231.82,231.743c-0.364-4.13,0.417-8.429-1.627-12.344
			c-0.087-0.166-0.161-0.438-0.086-0.575c0.547-1.019,0.582-1.026,0.023-1.896c-0.695-1.078-1.6-2.13-1.613-3.435
			c-0.052-5.154-1.546-10.223-0.964-15.411c0.306-0.993-0.526-1.206-1.092-1.26c-0.844-0.077-0.491,0.729-0.492,1.139
			c-0.025,6.198-0.015,12.396-0.019,18.595c-0.001,1.125,0.208,2.314-0.073,3.367c-1.479,5.53-0.323,10.982,0.515,16.396
			c0.491,3.177,1.928,6.144,4.164,8.592c0.406,0.444,0.906,1.095,1.509,0.892c0.73-0.245,0.386-1.078,0.364-1.64
			C232.263,240.021,232.183,235.87,231.82,231.743z M230.272,239.555c-0.85-1.613-0.842-3.005-1.217-4.283
			c-0.067-0.229-0.033-0.548,0.252-0.644c0.394-0.133,0.526,0.216,0.645,0.479C230.532,236.408,230.18,237.769,230.272,239.555z"/>
	</g>
</g>
</svg>
