<?xml version="1.0" encoding="utf-8"?>
<!-- Generator: Adobe Illustrator 16.0.0, SVG Export Plug-In . SVG Version: 6.00 Build 0)  -->
<!DOCTYPE svg PUBLIC "-//W3C//DTD SVG 1.1//EN" "http://www.w3.org/Graphics/SVG/1.1/DTD/svg11.dtd">
<svg version="1.1" id="Capa_1" xmlns="http://www.w3.org/2000/svg" xmlns:xlink="http://www.w3.org/1999/xlink" x="0px" y="0px"
	 width="492px" height="470px" viewBox="0 0 492 470" enable-background="new 0 0 492 470" xml:space="preserve">
<g>
	<path fill="#444444" d="M330.295,272.424l-1.152-0.514c-2.729-1.252-5.486-2.43-8.306-3.532c-3.069-1.228-6.188-2.368-9.346-3.433
		c-2.493-0.827-5.013-1.579-7.556-2.33c-3.87-1.129-7.778-2.131-11.801-3.032c-1.365-0.274-2.757-0.551-4.146-0.802l-0.939-0.176
		c-2.38-0.463-4.761-0.877-7.179-1.229l-0.688-0.111c-0.024,0-0.05-0.014-0.074-0.014l-0.701-0.102
		c-2.006-0.301-3.984-0.575-6.062-0.813l-7.066-0.588c-8.694-0.577-17.652-0.552-26.239,0.075l-2.499,0.213l-1.172,0.087
		l-2.919,0.276c-2.688,0.274-5.356,0.65-8.024,1.076l-0.789,0.102c-1.816,0.3-3.639,0.65-5.438,0.977
		c-1.992,0.363-3.959,0.752-5.926,1.178c-3.809,0.853-7.592,1.83-11.25,2.906c-2.912,0.827-5.794,1.754-8.494,2.683l-1.879,0.676
		c-5.737,2.03-11.438,4.36-16.963,6.916l-1.472,0.701l-0.024,0.038C107.637,304.546,66.014,370.38,66.014,441.789
		c0,1.652,0.105,3.257,0.206,4.886L66.702,458h371.571l0.501-11.2c0.112-1.653,0.213-3.307,0.213-5.011
		C438.987,369.229,396.343,302.829,330.295,272.424z M84.234,439.784c0.783-64.13,38.699-122.961,96.49-150.06l1.86-0.727
		l0.22-0.201c4.522-2.079,9.195-3.959,13.931-5.625l1.503-0.538c2.581-0.901,5.143-1.704,7.818-2.469
		c3.319-0.978,6.708-1.841,10.109-2.618c1.754-0.376,3.514-0.727,5.324-1.064c1.441-0.264,2.869-0.539,4.316-0.765l0.714-0.125
		c2.6-0.401,5.218-0.776,7.823-1.063l5.957-0.514c7.793-0.578,15.253-0.664,24.299,0l5.787,0.476
		c1.43,0.163,2.856,0.351,4.598,0.602l2.094,0.302c2.167,0.324,4.347,0.688,6.539,1.103l1.003,0.2
		c1.239,0.226,2.454,0.451,3.606,0.701c3.596,0.776,7.116,1.703,10.624,2.73c2.306,0.664,4.61,1.354,6.84,2.104
		c2.845,0.953,5.65,1.979,8.433,3.082c2.668,1.054,5.299,2.168,7.905,3.357l0.449,0.213c59.107,27.11,97.492,86.131,98.271,150.874
		H84.234V439.784z M207.479,232.348c1.365,0.576,2.774,1.077,4.184,1.578l2.963,1.071c1.141,0.438,2.287,0.864,3.451,1.233
		c10.855,3.414,22.219,5.162,33.764,5.263l0.921,0.024c3.965,0,7.93-0.213,11.738-0.602c1.314-0.126,2.581-0.352,3.871-0.564
		l2.844-0.426c1.604-0.207,3.207-0.443,4.887-0.775c1.151-0.232,2.254-0.533,3.383-0.834l3.105-0.795
		c1.541-0.369,3.082-0.746,4.598-1.215c0.953-0.302,1.881-0.651,2.795-0.997l2.506-0.902c1.791-0.62,3.596-1.259,5.398-2.011
		c0.701-0.301,1.392-0.626,2.056-0.958l0.813-0.401c2.468-1.102,4.923-2.23,7.366-3.545l1.578-0.946
		c2.73-1.547,5.463-3.15,8.219-5.036c1.428-0.964,2.806-2.048,4.146-3.119l4.66-3.627c26.822-22.2,42.231-54.766,42.231-88.547
		l0.051-0.971C369.007,61.148,316.853,9,252.754,9C191.568,9,140.66,56.844,136.865,117.924l-0.107,1.516
		c-0.144,1.923-0.263,3.839-0.263,5.807C136.477,172.069,164.338,214.107,207.479,232.348z M154.924,120.699l0.106-1.635
		c3.207-51.508,46.121-91.848,97.711-91.848c54.063,0,98.037,43.973,98.088,97.204l-0.063,0.952
		c-0.023,29.165-13.027,56.626-35.754,75.493l-4.335,3.295c-0.965,0.783-1.93,1.566-3.157,2.405c-2.18,1.485-4.483,2.825-6.84,4.153
		l-1.303,0.796c-1.968,1.052-4.034,1.992-6.189,2.95l-2.404,1.165c-1.391,0.57-2.844,1.071-4.284,1.572l-3.007,1.09
		c-0.576,0.213-1.178,0.451-1.754,0.626c-1.115,0.345-2.256,0.607-3.407,0.89l-3.634,0.933c-0.776,0.207-1.553,0.426-2.242,0.57
		c-1.215,0.238-2.455,0.401-3.684,0.576l-3.457,0.521c-0.84,0.144-1.68,0.288-2.619,0.382c-3.031,0.319-6.082,0.489-9.176,0.52
		l-0.858-0.013h-0.021c-9.972-0.006-19.762-1.491-29.126-4.422c-0.809-0.257-1.604-0.576-2.393-0.877l-3.426-1.247
		c-1.065-0.375-2.124-0.739-3.145-1.165c-36.356-15.378-59.859-50.844-59.859-90.333
		C154.691,123.718,154.811,122.202,154.924,120.699z"/>
</g>
<g>
	<g>
		<g>
			<path fill="#7FDA43" d="M229.062,167.22c0.214-0.343,0.127-0.858,0.672-0.761c1.632,0.461,2.027,2.366,3.626,2.877l0.443-0.493
				c0.93,0.913,1.879,1.876,2.826,2.896c2.111,1.306,4.291,2.483,6.415,3.76c0.084-0.233,0.185-0.43,0.437-0.359
				c0.94,0.452,1.975,1.461,3.142,2.368c0.197,0.1,0.396,0.199,0.59,0.297c0.219-0.012,0.389-0.17,0.493-0.268
				c0.522,0.42,0.963,0.829,1.362,1.217c6.598,3.324,13.358,6.876,20.427,11.269c1.682,0.72,3.356,1.472,4.776,2.411
				c2.008,1.496,3.947,4.061,5.641,5.79c1.359-1.915,6.342,1.558,7.184-0.916c1.131,1.198,2.766,3.053,3.324,2.7
				c1.672-1.056,4.217-1.709,8.093,0.79c1.373,1.112,2.55,3.649,3.256,3.842c1.116,0.305-0.479-2.596,0.636-2.293
				c-4.051-5.117-8.525-9.726-13.145-14.191c-4.656-4.436-9.518-8.672-14.484-13.013c-1.014-0.546-3.258-2.131-6.12-4.299
				c-1.464-1.051-3.085-2.241-4.796-3.512c-1.732-1.243-3.563-2.556-5.416-3.883c-3.729-2.621-7.592-5.239-10.963-7.428
				c-1.66-1.131-3.25-2.079-4.583-2.947c-1.331-0.872-2.446-1.602-3.266-2.139l-0.634-0.329c-1.834-1.102-3.872-2.31-5.962-3.258
				c-2.096-0.939-4.162-1.747-5.972-2.169c-1.738-0.232-3.541-0.363-5.31-0.503c0.537,0.678,1.019,1.329,1.412,1.934
				c-1.499-0.766-2.989-1.556-3.755-1.43c-3.688-0.521-2.272,1.348-1.688,3.312c0.598,1.02-1.017,1.43,0.049,2.708
				c-0.956-0.503-1.461-0.7-2.438-1.172c-0.375,0.537,3.188,1.033,2.054,1.711c-0.832-0.675-2.074-0.745-3.042-1.21
				c-0.012,0.954,3.277,1.783,2.751,2.535c-0.586-0.093-2.266-2.295-2.892-1.392c-0.125,0.183,0.843,0.636,1.325,0.864
				c-3.162-1.002-5.189-0.751-2.944,1.513c-0.926-0.437-2.08-1.438-3.135-1.732c-0.002,0.007,0.001,0.012,0.001,0.02
				c0.483,0.249,1.254,0.829,1.707,1.041l-1.673-0.788c0.031,0.18,0.074,0.363,0.123,0.548c0.37,0.306,0.751,0.588,1.183,0.793
				l-1.106-0.521c0.145,0.449,0.334,0.903,0.561,1.351c1.054,1.221,1.895,2.705,2.592,3.033
				C218.301,160.854,223.723,163.972,229.062,167.22z"/>
		</g>
	</g>
</g>
<g>
	<g>
		<g>
			<path fill="#7FDA43" d="M239.881,196.197c-0.271-0.3-0.76-0.388-0.562-0.84c0.753-1.288,2.559-1.061,3.34-2.322l-0.369-0.546
				c1.007-0.552,2.104-1.071,3.179-1.647c1.537-1.542,3-3.142,4.493-4.726c-0.201-0.14-0.366-0.285-0.265-0.494
				c0.56-0.726,1.646-1.383,2.662-2.188c0.117-0.155,0.234-0.31,0.352-0.463c0.018-0.203-0.105-0.399-0.182-0.521
				c0.453-0.371,0.885-0.669,1.293-0.936c1.935-2.604,3.963-5.194,5.996-7.897c2.031-2.706,4.162-5.454,6.41-8.284
				c0.768-1.418,1.537-2.84,2.473-3.975c1.49-1.556,3.884-2.951,5.546-4.216c-1.71-1.582,1.524-5.682-0.735-6.847
				c1.11-0.847,2.785-2.104,2.456-2.679c-0.981-1.722-1.573-4.148,0.56-7.398c0.951-1.127,3.197-1.892,3.346-2.522
				c0.229-0.994-2.329,0.114-2.1-0.879c-8.799,6.235-16.354,13.458-24.773,20.47c-0.557,0.78-2.145,2.44-4.307,4.513
				c-2.159,2.075-4.896,4.568-7.672,7.179c-5.618,5.113-11.414,10.612-13.968,12.654l-0.405,0.436
				c-2.64,2.403-5.636,5.549-7.155,8.288c-0.577,1.379-1.082,2.854-1.594,4.301c0.723-0.202,1.411-0.368,2.039-0.479
				c-1.018,0.985-2.037,1.969-2.114,2.649c-1.378,2.85,0.646,2.412,2.572,2.678c1.066-0.116,1.055,1.414,2.45,0.977
				c-0.666,0.642-1,0.964-1.669,1.609c0.399,0.529,1.741-2.285,2.064-1.079c-0.798,0.467-1.201,1.461-1.866,2.103
				c0.863,0.38,2.462-2.07,2.988-1.364c-0.198,0.497-2.654,1.042-1.992,1.921c0.134,0.175,0.796-0.465,1.129-0.784
				c-1.729,2.274-2.048,4.096,0.598,3.062c-0.643,0.618-1.854,1.21-2.4,1.992l0.018,0.007c0.354-0.314,1.082-0.744,1.394-1.046
				l-1.157,1.115c0.17,0.044,0.347,0.078,0.526,0.108c0.375-0.196,0.731-0.411,1.032-0.699l-0.768,0.739
				c0.443,0.051,0.904,0.065,1.37,0.044c1.388-0.427,2.966-0.582,3.455-1.052c2.106-1.778,4.108-3.646,6.206-5.436
				C235.856,199.921,237.897,198.083,239.881,196.197z"/>
		</g>
	</g>
</g>
</svg>
