<?xml version="1.0" encoding="utf-8"?>
<!-- Generator: Adobe Illustrator 16.0.0, SVG Export Plug-In . SVG Version: 6.00 Build 0)  -->
<!DOCTYPE svg PUBLIC "-//W3C//DTD SVG 1.1//EN" "http://www.w3.org/Graphics/SVG/1.1/DTD/svg11.dtd">
<svg version="1.1" id="Capa_1" xmlns="http://www.w3.org/2000/svg" xmlns:xlink="http://www.w3.org/1999/xlink" x="0px" y="0px"
	 width="116.5px" height="108.75px" viewBox="0 0 116.5 108.75" enable-background="new 0 0 116.5 108.75" xml:space="preserve">
<g>
	<g>
		<g>
			<path fill="#88BE47" d="M31.385,46.413c0.214-0.343,0.127-0.858,0.672-0.761c1.632,0.461,2.027,2.366,3.626,2.877l0.443-0.493
				c0.93,0.913,1.879,1.876,2.826,2.896c2.111,1.306,4.291,2.483,6.415,3.76c0.084-0.233,0.185-0.431,0.437-0.358
				c0.94,0.451,1.975,1.461,3.142,2.367c0.197,0.1,0.396,0.199,0.59,0.297c0.219-0.012,0.389-0.17,0.493-0.268
				c0.522,0.42,0.963,0.829,1.362,1.217c6.598,3.324,13.358,6.876,20.427,11.27c1.682,0.72,3.356,1.472,4.776,2.41
				c2.008,1.496,3.947,4.062,5.641,5.791c1.359-1.916,6.342,1.558,7.184-0.916c1.131,1.197,2.766,3.053,3.324,2.699
				c1.672-1.056,4.217-1.709,8.093,0.79c1.373,1.112,2.55,3.649,3.256,3.843c1.116,0.305-0.479-2.597,0.636-2.293
				c-4.051-5.117-8.525-9.727-13.145-14.191c-4.656-4.436-9.518-8.672-14.484-13.014c-1.014-0.545-3.258-2.131-6.12-4.299
				c-1.464-1.051-3.085-2.241-4.796-3.512c-1.732-1.243-3.563-2.556-5.416-3.883c-3.729-2.621-7.592-5.239-10.963-7.428
				c-1.66-1.131-3.25-2.079-4.583-2.947c-1.331-0.872-2.446-1.602-3.266-2.139l-0.634-0.329c-1.834-1.102-3.872-2.31-5.962-3.258
				c-2.096-0.939-4.162-1.747-5.972-2.169c-1.738-0.232-3.541-0.363-5.31-0.503c0.537,0.678,1.019,1.329,1.412,1.934
				c-1.499-0.766-2.989-1.556-3.755-1.43c-3.688-0.521-2.272,1.348-1.688,3.312c0.598,1.02-1.017,1.43,0.049,2.708
				c-0.956-0.503-1.461-0.7-2.438-1.172c-0.375,0.537,3.188,1.033,2.054,1.711c-0.832-0.675-2.074-0.745-3.042-1.21
				c-0.012,0.954,3.277,1.783,2.751,2.535c-0.586-0.093-2.266-2.295-2.892-1.392c-0.125,0.183,0.843,0.636,1.325,0.864
				c-3.162-1.002-5.189-0.751-2.944,1.513c-0.926-0.437-2.08-1.438-3.135-1.732c-0.002,0.007,0.001,0.012,0.001,0.02
				c0.483,0.249,1.254,0.829,1.707,1.041l-1.673-0.788c0.031,0.18,0.074,0.363,0.123,0.548c0.37,0.306,0.751,0.588,1.183,0.793
				l-1.106-0.521c0.145,0.449,0.334,0.903,0.561,1.351c1.054,1.221,1.895,2.705,2.592,3.033
				C20.624,40.047,26.046,43.166,31.385,46.413z"/>
		</g>
	</g>
</g>
<g>
	<g>
		<g>
			<path fill="#88BE47" d="M42.204,75.391c-0.271-0.301-0.76-0.389-0.562-0.84c0.753-1.289,2.559-1.062,3.34-2.322l-0.369-0.546
				c1.007-0.552,2.104-1.071,3.179-1.647c1.537-1.542,3-3.142,4.493-4.726c-0.201-0.14-0.366-0.285-0.265-0.494
				c0.56-0.726,1.646-1.383,2.662-2.188c0.117-0.154,0.234-0.31,0.352-0.463c0.018-0.203-0.105-0.398-0.182-0.521
				c0.453-0.371,0.885-0.669,1.293-0.937c1.935-2.604,3.963-5.193,5.996-7.896c2.031-2.706,4.162-5.454,6.41-8.284
				c0.768-1.418,1.537-2.84,2.473-3.975c1.49-1.556,3.884-2.951,5.546-4.216c-1.71-1.582,1.524-5.682-0.735-6.847
				c1.11-0.847,2.785-2.104,2.456-2.679c-0.981-1.722-1.573-4.148,0.56-7.398c0.951-1.127,3.197-1.892,3.346-2.522
				c0.229-0.994-2.329,0.114-2.1-0.879c-8.799,6.235-16.354,13.458-24.773,20.47c-0.557,0.78-2.145,2.44-4.307,4.513
				c-2.159,2.075-4.896,4.568-7.672,7.179c-5.618,5.113-11.414,10.612-13.968,12.654l-0.405,0.436
				c-2.64,2.404-5.636,5.55-7.155,8.289c-0.577,1.379-1.082,2.854-1.594,4.301c0.723-0.202,1.411-0.368,2.039-0.479
				c-1.018,0.985-2.037,1.97-2.114,2.649c-1.378,2.85,0.646,2.412,2.572,2.678c1.066-0.115,1.055,1.414,2.45,0.977
				c-0.666,0.643-1,0.965-1.669,1.609c0.399,0.529,1.741-2.285,2.064-1.079c-0.798,0.468-1.201,1.462-1.866,2.103
				c0.863,0.38,2.462-2.07,2.988-1.364c-0.198,0.497-2.654,1.042-1.992,1.921c0.134,0.176,0.796-0.465,1.129-0.783
				c-1.729,2.273-2.048,4.096,0.598,3.062c-0.643,0.618-1.854,1.21-2.4,1.991l0.018,0.008c0.354-0.314,1.082-0.744,1.394-1.047
				l-1.157,1.115c0.17,0.045,0.347,0.078,0.526,0.108c0.375-0.196,0.731-0.411,1.032-0.699l-0.768,0.739
				c0.443,0.051,0.904,0.064,1.37,0.044c1.388-0.427,2.966-0.582,3.455-1.052c2.106-1.778,4.108-3.646,6.206-5.436
				C38.179,79.114,40.22,77.276,42.204,75.391z"/>
		</g>
	</g>
</g>
</svg>
